<?xml version="1.0" standalone="no"?>
 <!DOCTYPE svg PUBLIC "-//W3C//DTD SVG 1.1//EN" 
 "http://www.w3.org/Graphics/SVG/1.1/DTD/svg11.dtd"> 
<svg xmlns="http://www.w3.org/2000/svg" version="1.1" 
    width="4.75996cm" height="2.89814cm" viewBox="0 0 18740 11410 ">
<title>SVG Picture created as rack_frontpanel_leds-brd.svg date 2015/02/07 23:24:58 </title>
  <desc>Picture generated by PCBNEW </desc>
<g style="fill:#000000; fill-opacity:1;stroke:#000000; stroke-opacity:1;
stroke-linecap:round; stroke-linejoin:round; "
 transform="translate(0 0) scale(1 1)">
</g>
<g style="fill:#840084; fill-opacity:0.0; 
stroke:#840084; stroke-width:59.0551; stroke-opacity:1; 
stroke-linecap:round; stroke-linejoin:round;">
<path d="M5357 4536
L5357 4814
" />
<path d="M5357 4814
L4807 4814
" />
<path d="M4807 4814
L4807 4536
" />
<path d="M5357 3864
L5357 4142
" />
<path d="M5357 3864
L4807 3864
" />
<path d="M4807 3864
L4807 4142
" />
<path d="M8857 4536
L8857 4814
" />
<path d="M8857 4814
L8307 4814
" />
<path d="M8307 4814
L8307 4536
" />
<path d="M8857 3864
L8857 4142
" />
<path d="M8857 3864
L8307 3864
" />
<path d="M8307 3864
L8307 4142
" />
<path d="M12257 4536
L12257 4814
" />
<path d="M12257 4814
L11707 4814
" />
<path d="M11707 4814
L11707 4536
" />
<path d="M12257 3864
L12257 4142
" />
<path d="M12257 3864
L11707 3864
" />
<path d="M11707 3864
L11707 4142
" />
<path d="M15207 4142
L15207 3864
" />
<path d="M15207 3864
L15757 3864
" />
<path d="M15757 3864
L15757 4142
" />
<path d="M15207 4814
L15207 4536
" />
<path d="M15207 4814
L15757 4814
" />
<path d="M15757 4814
L15757 4536
" />
<path d="M16562 7220
L16562 4858
" />
<path d="M16562 4858
L15302 4858
" />
<path d="M15302 4858
L14987 5173
" />
<path d="M14987 5173
L14987 7220
" />
<path d="M16562 7220
L14987 7220
" />
<path d="M15341 6314
L15341 5802
" />
<path d="M15813 6669
L15735 6669
" />
<path d="M16207 5802
L16207 6275
" />
<path d="M15813 5409
L15735 5409
" />
<path d="M13098 7220
L13098 4858
" />
<path d="M13098 4858
L11838 4858
" />
<path d="M11838 4858
L11523 5173
" />
<path d="M11523 5173
L11523 7220
" />
<path d="M13098 7220
L11523 7220
" />
<path d="M11877 6314
L11877 5802
" />
<path d="M12349 6669
L12271 6669
" />
<path d="M12743 5802
L12743 6275
" />
<path d="M12349 5409
L12271 5409
" />
<path d="M9634 7220
L9634 4858
" />
<path d="M9634 4858
L8374 4858
" />
<path d="M8374 4858
L8059 5173
" />
<path d="M8059 5173
L8059 7220
" />
<path d="M9634 7220
L8059 7220
" />
<path d="M8413 6314
L8413 5802
" />
<path d="M8885 6669
L8807 6669
" />
<path d="M9279 5802
L9279 6275
" />
<path d="M8885 5409
L8807 5409
" />
<path d="M6170 7220
L6170 4858
" />
<path d="M6170 4858
L4910 4858
" />
<path d="M4910 4858
L4595 5173
" />
<path d="M4595 5173
L4595 7220
" />
<path d="M6170 7220
L4595 7220
" />
<path d="M4949 6314
L4949 5802
" />
<path d="M5421 6669
L5343 6669
" />
<path d="M5815 5802
L5815 6275
" />
<path d="M5421 5409
L5343 5409
" />
<path d="M7834 6539
L7834 7539
" />
<path d="M6614.28 7039.17 A600 600 0.0 0 0 6753.31 7423.24 " />
<path d="M6766.28 6641.17 A599.256 599.256 0.0 0 0 6615.03 7038.99 " />
<path d="M7669.28 7429.17 A599.27 599.27 0.0 0 0 7813.55 7039.19 " />
<path d="M7814.28 7039.17 A600 600 0.0 0 0 7675.25 6655.11 " />
<path d="M7214.28 7639.17 A600 600 0.0 0 0 7702.14 7388.45 " />
<path d="M6734.28 7399.17 A600 600 0.0 0 0 7213.97 7639.17 " />
<path d="M7687.28 6671.17 A599.294 599.294 0.0 0 0 7214.46 6439.88 " />
<path d="M7214.28 6439.17 A600 600 0.0 0 0 6740.83 6670.6 " />
<path d="M6964.28 7039.17 A250 250 0.0 0 0 7214.28 7289.17 " />
<path d="M6814.28 7039.17 A400 400 0.0 0 0 7214.28 7439.17 " />
<path d="M7464.28 7039.17 A250 250 0.0 0 0 7214.28 6789.17 " />
<path d="M7614.28 7039.17 A400 400 0.0 0 0 7214.28 6639.17 " />
<path d="M7214.28 7839.17 A800 800 0.0 0 0 7828.01 7552.33 " />
<path d="M6509.28 7415.17 A799 799 0.0 0 0 7213.9 7838.17 " />
<path d="M7824.28 6523.17 A798.972 798.972 0.0 0 0 7215.29 6240.2 " />
<path d="M7214.28 6239.17 A800 800 0.0 0 0 6520.07 6641.59 " />
<path d="M6414.28 7039.17 A800 800 0.0 0 0 6509.9 7418.44 " />
<path d="M6533.28 6620.17 A799.576 799.576 0.0 0 0 6414.71 7039.13 " />
<path d="M11301 6539
L11301 7539
" />
<path d="M10081.3 7039.17 A600 600 0.0 0 0 10220.3 7423.24 " />
<path d="M10233.3 6641.17 A599.256 599.256 0.0 0 0 10082 7038.99 " />
<path d="M11136.3 7429.17 A599.27 599.27 0.0 0 0 11280.6 7039.19 " />
<path d="M11281.3 7039.17 A600 600 0.0 0 0 11142.3 6655.11 " />
<path d="M10681.3 7639.17 A600 600 0.0 0 0 11169.1 7388.45 " />
<path d="M10201.3 7399.17 A600 600 0.0 0 0 10681 7639.17 " />
<path d="M11154.3 6671.17 A599.294 599.294 0.0 0 0 10681.5 6439.88 " />
<path d="M10681.3 6439.17 A600 600 0.0 0 0 10207.8 6670.6 " />
<path d="M10431.3 7039.17 A250 250 0.0 0 0 10681.3 7289.17 " />
<path d="M10281.3 7039.17 A400 400 0.0 0 0 10681.3 7439.17 " />
<path d="M10931.3 7039.17 A250 250 0.0 0 0 10681.3 6789.17 " />
<path d="M11081.3 7039.17 A400 400 0.0 0 0 10681.3 6639.17 " />
<path d="M10681.3 7839.17 A800 800 0.0 0 0 11295 7552.33 " />
<path d="M9976.28 7415.17 A799 799 0.0 0 0 10680.9 7838.17 " />
<path d="M11291.3 6523.17 A798.972 798.972 0.0 0 0 10682.3 6240.2 " />
<path d="M10681.3 6239.17 A800 800 0.0 0 0 9987.07 6641.59 " />
<path d="M9881.28 7039.17 A800 800 0.0 0 0 9976.9 7418.44 " />
<path d="M10000.3 6620.17 A799.576 799.576 0.0 0 0 9881.71 7039.13 " />
<path d="M14762 6539
L14762 7539
" />
<path d="M13542.3 7039.17 A600 600 0.0 0 0 13681.3 7423.24 " />
<path d="M13694.3 6641.17 A599.256 599.256 0.0 0 0 13543 7038.99 " />
<path d="M14597.3 7429.17 A599.27 599.27 0.0 0 0 14741.6 7039.19 " />
<path d="M14742.3 7039.17 A600 600 0.0 0 0 14603.3 6655.11 " />
<path d="M14142.3 7639.17 A600 600 0.0 0 0 14630.1 7388.45 " />
<path d="M13662.3 7399.17 A600 600 0.0 0 0 14142 7639.17 " />
<path d="M14615.3 6671.17 A599.294 599.294 0.0 0 0 14142.5 6439.88 " />
<path d="M14142.3 6439.17 A600 600 0.0 0 0 13668.8 6670.6 " />
<path d="M13892.3 7039.17 A250 250 0.0 0 0 14142.3 7289.17 " />
<path d="M13742.3 7039.17 A400 400 0.0 0 0 14142.3 7439.17 " />
<path d="M14392.3 7039.17 A250 250 0.0 0 0 14142.3 6789.17 " />
<path d="M14542.3 7039.17 A400 400 0.0 0 0 14142.3 6639.17 " />
<path d="M14142.3 7839.17 A800 800 0.0 0 0 14756 7552.33 " />
<path d="M13437.3 7415.17 A799 799 0.0 0 0 14141.9 7838.17 " />
<path d="M14752.3 6523.17 A798.972 798.972 0.0 0 0 14143.3 6240.2 " />
<path d="M14142.3 6239.17 A800 800 0.0 0 0 13448.1 6641.59 " />
<path d="M13342.3 7039.17 A800 800 0.0 0 0 13437.9 7418.44 " />
<path d="M13461.3 6620.17 A799.576 799.576 0.0 0 0 13342.7 7039.13 " />
<path d="M5173 4492
L5304 4304
" />
<path d="M5398 4492
L5398 4098
L5248 4098
L5210 4117
L5191 4136
L5173 4173
L5173 4229
L5191 4267
L5210 4286
L5248 4304
L5398 4304
" />
<path d="M5023 4136
L5004 4117
L4967 4098
L4873 4098
L4835 4117
L4817 4136
L4798 4173
L4798 4211
L4817 4267
L5042 4492
L4798 4492
" />
<path d="M4960 5186
L5091 4998
" />
<path d="M5185 5186
L5185 4792
L5035 4792
L4998 4811
L4979 4830
L4960 4867
L4960 4923
L4979 4961
L4998 4980
L5035 4998
L5185 4998
" />
<path d="M8673 4492
L8804 4304
" />
<path d="M8898 4492
L8898 4098
L8748 4098
L8710 4117
L8691 4136
L8673 4173
L8673 4229
L8691 4267
L8710 4286
L8748 4304
L8898 4304
" />
<path d="M8335 4229
L8335 4492
" />
<path d="M8429 4079
L8523 4361
L8279 4361
" />
<path d="M8460 5186
L8591 4998
" />
<path d="M8685 5186
L8685 4792
L8535 4792
L8498 4811
L8479 4830
L8460 4867
L8460 4923
L8479 4961
L8498 4980
L8535 4998
L8685 4998
" />
<path d="M12073 4492
L12204 4304
" />
<path d="M12298 4492
L12298 4098
L12148 4098
L12110 4117
L12091 4136
L12073 4173
L12073 4229
L12091 4267
L12110 4286
L12148 4304
L12298 4304
" />
<path d="M11735 4098
L11810 4098
L11848 4117
L11867 4136
L11904 4192
L11923 4267
L11923 4417
L11904 4454
L11885 4473
L11848 4492
L11773 4492
L11735 4473
L11717 4454
L11698 4417
L11698 4323
L11717 4286
L11735 4267
L11773 4248
L11848 4248
L11885 4267
L11904 4286
L11923 4323
" />
<path d="M11860 5186
L11991 4998
" />
<path d="M12085 5186
L12085 4792
L11935 4792
L11898 4811
L11879 4830
L11860 4867
L11860 4923
L11879 4961
L11898 4980
L11935 4998
L12085 4998
" />
<path d="M15523 4542
L15654 4354
" />
<path d="M15748 4542
L15748 4148
L15598 4148
L15560 4167
L15541 4186
L15523 4223
L15523 4279
L15541 4317
L15560 4336
L15598 4354
L15748 4354
" />
<path d="M15298 4317
L15335 4298
L15354 4279
L15373 4242
L15373 4223
L15354 4186
L15335 4167
L15298 4148
L15223 4148
L15185 4167
L15167 4186
L15148 4223
L15148 4242
L15167 4279
L15185 4298
L15223 4317
L15298 4317
L15335 4336
L15354 4354
L15373 4392
L15373 4467
L15354 4504
L15335 4523
L15298 4542
L15223 4542
L15185 4523
L15167 4504
L15148 4467
L15148 4392
L15167 4354
L15185 4336
L15223 4317
" />
<path d="M15360 3848
L15491 3660
" />
<path d="M15585 3848
L15585 3454
L15435 3454
L15398 3473
L15379 3492
L15360 3529
L15360 3585
L15379 3623
L15398 3642
L15435 3660
L15585 3660
" />
<path d="M17330 5748
L16936 5748
L16936 5842
L16955 5898
L16993 5936
L17030 5954
L17105 5973
L17161 5973
L17236 5954
L17274 5936
L17311 5898
L17330 5842
L17330 5748
" />
<path d="M17105 6198
L17086 6161
L17068 6142
L17030 6123
L17011 6123
L16974 6142
L16955 6161
L16936 6198
L16936 6273
L16955 6311
L16974 6329
L17011 6348
L17030 6348
L17068 6329
L17086 6311
L17105 6273
L17105 6198
L17124 6161
L17143 6142
L17180 6123
L17255 6123
L17293 6142
L17311 6161
L17330 6198
L17330 6273
L17311 6311
L17293 6329
L17255 6348
L17180 6348
L17143 6329
L17124 6311
L17105 6273
" />
<path d="M14496 2523
L14496 2336
L14102 2336
" />
<path d="M14289 2655
L14289 2786
" />
<path d="M14496 2842
L14496 2655
L14102 2655
L14102 2842
" />
<path d="M14496 3011
L14102 3011
L14102 3105
L14121 3161
L14158 3198
L14196 3217
L14271 3236
L14327 3236
L14402 3217
L14439 3198
L14477 3161
L14496 3105
L14496 3011
" />
<path d="M14533 3311
L14533 3611
" />
<path d="M14496 3930
L14308 3798
" />
<path d="M14496 3705
L14102 3705
L14102 3855
L14121 3892
L14139 3911
L14177 3930
L14233 3930
L14271 3911
L14289 3892
L14308 3855
L14308 3705
" />
<path d="M14121 4305
L14102 4267
L14102 4211
L14121 4155
L14158 4117
L14196 4098
L14271 4080
L14327 4080
L14402 4098
L14439 4117
L14477 4155
L14496 4211
L14496 4248
L14477 4305
L14458 4323
L14327 4323
L14327 4248
" />
<path d="M14289 4623
L14308 4679
L14327 4698
L14364 4717
L14421 4717
L14458 4698
L14477 4679
L14496 4642
L14496 4492
L14102 4492
L14102 4623
L14121 4661
L14139 4679
L14177 4698
L14214 4698
L14252 4679
L14271 4661
L14289 4623
L14289 4492
" />
<path d="M14533 4792
L14533 5092
" />
<path d="M14458 5411
L14477 5392
L14496 5336
L14496 5298
L14477 5242
L14439 5204
L14402 5186
L14327 5167
L14271 5167
L14196 5186
L14158 5204
L14121 5242
L14102 5298
L14102 5336
L14121 5392
L14139 5411
" />
<path d="M14102 5654
L14102 5729
L14121 5767
L14158 5804
L14233 5823
L14364 5823
L14439 5804
L14477 5767
L14496 5729
L14496 5654
L14477 5617
L14439 5579
L14364 5561
L14233 5561
L14158 5579
L14121 5617
L14102 5654
" />
<path d="M14496 5992
L14102 5992
L14383 6123
L14102 6254
L14496 6254
" />
<path d="M14496 6442
L14102 6442
L14383 6573
L14102 6704
L14496 6704
" />
<path d="M14102 6967
L14102 7042
L14121 7079
L14158 7117
L14233 7135
L14364 7135
L14439 7117
L14477 7079
L14496 7042
L14496 6967
L14477 6929
L14439 6892
L14364 6873
L14233 6873
L14158 6892
L14121 6929
L14102 6967
" />
<path d="M14496 7304
L14102 7304
L14496 7529
L14102 7529
" />
<path d="M14533 7623
L14533 7923
" />
<path d="M14383 7998
L14383 8185
" />
<path d="M14496 7960
L14102 8092
L14496 8223
" />
<path d="M14496 8354
L14102 8354
L14496 8579
L14102 8579
" />
<path d="M14102 8841
L14102 8916
L14121 8954
L14158 8991
L14233 9010
L14364 9010
L14439 8991
L14477 8954
L14496 8916
L14496 8841
L14477 8804
L14439 8766
L14364 8748
L14233 8748
L14158 8766
L14121 8804
L14102 8841
" />
<path d="M14496 9179
L14102 9179
L14102 9273
L14121 9329
L14158 9366
L14196 9385
L14271 9404
L14327 9404
L14402 9385
L14439 9366
L14477 9329
L14496 9273
L14496 9179
" />
<path d="M14289 9573
L14289 9704
" />
<path d="M14496 9760
L14496 9573
L14102 9573
L14102 9760
" />
<path d="M13866 5748
L13472 5748
L13472 5842
L13491 5898
L13529 5936
L13566 5954
L13641 5973
L13697 5973
L13772 5954
L13810 5936
L13847 5898
L13866 5842
L13866 5748
" />
<path d="M13472 6311
L13472 6236
L13491 6198
L13510 6179
L13566 6142
L13641 6123
L13791 6123
L13829 6142
L13847 6161
L13866 6198
L13866 6273
L13847 6311
L13829 6329
L13791 6348
L13697 6348
L13660 6329
L13641 6311
L13622 6273
L13622 6198
L13641 6161
L13660 6142
L13697 6123
" />
<path d="M11032 2523
L11032 2336
L10638 2336
" />
<path d="M10825 2655
L10825 2786
" />
<path d="M11032 2842
L11032 2655
L10638 2655
L10638 2842
" />
<path d="M11032 3011
L10638 3011
L10638 3105
L10657 3161
L10694 3198
L10732 3217
L10807 3236
L10863 3236
L10938 3217
L10975 3198
L11013 3161
L11032 3105
L11032 3011
" />
<path d="M11069 3311
L11069 3611
" />
<path d="M11032 3930
L10844 3798
" />
<path d="M11032 3705
L10638 3705
L10638 3855
L10657 3892
L10675 3911
L10713 3930
L10769 3930
L10807 3911
L10825 3892
L10844 3855
L10844 3705
" />
<path d="M10657 4305
L10638 4267
L10638 4211
L10657 4155
L10694 4117
L10732 4098
L10807 4080
L10863 4080
L10938 4098
L10975 4117
L11013 4155
L11032 4211
L11032 4248
L11013 4305
L10994 4323
L10863 4323
L10863 4248
" />
<path d="M10825 4623
L10844 4679
L10863 4698
L10900 4717
L10957 4717
L10994 4698
L11013 4679
L11032 4642
L11032 4492
L10638 4492
L10638 4623
L10657 4661
L10675 4679
L10713 4698
L10750 4698
L10788 4679
L10807 4661
L10825 4623
L10825 4492
" />
<path d="M11069 4792
L11069 5092
" />
<path d="M10994 5411
L11013 5392
L11032 5336
L11032 5298
L11013 5242
L10975 5204
L10938 5186
L10863 5167
L10807 5167
L10732 5186
L10694 5204
L10657 5242
L10638 5298
L10638 5336
L10657 5392
L10675 5411
" />
<path d="M10638 5654
L10638 5729
L10657 5767
L10694 5804
L10769 5823
L10900 5823
L10975 5804
L11013 5767
L11032 5729
L11032 5654
L11013 5617
L10975 5579
L10900 5561
L10769 5561
L10694 5579
L10657 5617
L10638 5654
" />
<path d="M11032 5992
L10638 5992
L10919 6123
L10638 6254
L11032 6254
" />
<path d="M11032 6442
L10638 6442
L10919 6573
L10638 6704
L11032 6704
" />
<path d="M10638 6967
L10638 7042
L10657 7079
L10694 7117
L10769 7135
L10900 7135
L10975 7117
L11013 7079
L11032 7042
L11032 6967
L11013 6929
L10975 6892
L10900 6873
L10769 6873
L10694 6892
L10657 6929
L10638 6967
" />
<path d="M11032 7304
L10638 7304
L11032 7529
L10638 7529
" />
<path d="M11069 7623
L11069 7923
" />
<path d="M10919 7998
L10919 8185
" />
<path d="M11032 7960
L10638 8092
L11032 8223
" />
<path d="M11032 8354
L10638 8354
L11032 8579
L10638 8579
" />
<path d="M10638 8841
L10638 8916
L10657 8954
L10694 8991
L10769 9010
L10900 9010
L10975 8991
L11013 8954
L11032 8916
L11032 8841
L11013 8804
L10975 8766
L10900 8748
L10769 8748
L10694 8766
L10657 8804
L10638 8841
" />
<path d="M11032 9179
L10638 9179
L10638 9273
L10657 9329
L10694 9366
L10732 9385
L10807 9404
L10863 9404
L10938 9385
L10975 9366
L11013 9329
L11032 9273
L11032 9179
" />
<path d="M10825 9573
L10825 9704
" />
<path d="M11032 9760
L11032 9573
L10638 9573
L10638 9760
" />
<path d="M10402 5748
L10008 5748
L10008 5842
L10027 5898
L10065 5936
L10102 5954
L10177 5973
L10233 5973
L10308 5954
L10346 5936
L10383 5898
L10402 5842
L10402 5748
" />
<path d="M10140 6311
L10402 6311
" />
<path d="M9990 6217
L10271 6123
L10271 6367
" />
<path d="M7568 2523
L7568 2336
L7174 2336
" />
<path d="M7361 2655
L7361 2786
" />
<path d="M7568 2842
L7568 2655
L7174 2655
L7174 2842
" />
<path d="M7568 3011
L7174 3011
L7174 3105
L7193 3161
L7230 3198
L7268 3217
L7343 3236
L7399 3236
L7474 3217
L7511 3198
L7549 3161
L7568 3105
L7568 3011
" />
<path d="M7605 3311
L7605 3611
" />
<path d="M7568 3930
L7380 3798
" />
<path d="M7568 3705
L7174 3705
L7174 3855
L7193 3892
L7211 3911
L7249 3930
L7305 3930
L7343 3911
L7361 3892
L7380 3855
L7380 3705
" />
<path d="M7193 4305
L7174 4267
L7174 4211
L7193 4155
L7230 4117
L7268 4098
L7343 4080
L7399 4080
L7474 4098
L7511 4117
L7549 4155
L7568 4211
L7568 4248
L7549 4305
L7530 4323
L7399 4323
L7399 4248
" />
<path d="M7361 4623
L7380 4679
L7399 4698
L7436 4717
L7493 4717
L7530 4698
L7549 4679
L7568 4642
L7568 4492
L7174 4492
L7174 4623
L7193 4661
L7211 4679
L7249 4698
L7286 4698
L7324 4679
L7343 4661
L7361 4623
L7361 4492
" />
<path d="M7605 4792
L7605 5092
" />
<path d="M7530 5411
L7549 5392
L7568 5336
L7568 5298
L7549 5242
L7511 5204
L7474 5186
L7399 5167
L7343 5167
L7268 5186
L7230 5204
L7193 5242
L7174 5298
L7174 5336
L7193 5392
L7211 5411
" />
<path d="M7174 5654
L7174 5729
L7193 5767
L7230 5804
L7305 5823
L7436 5823
L7511 5804
L7549 5767
L7568 5729
L7568 5654
L7549 5617
L7511 5579
L7436 5561
L7305 5561
L7230 5579
L7193 5617
L7174 5654
" />
<path d="M7568 5992
L7174 5992
L7455 6123
L7174 6254
L7568 6254
" />
<path d="M7568 6442
L7174 6442
L7455 6573
L7174 6704
L7568 6704
" />
<path d="M7174 6967
L7174 7042
L7193 7079
L7230 7117
L7305 7135
L7436 7135
L7511 7117
L7549 7079
L7568 7042
L7568 6967
L7549 6929
L7511 6892
L7436 6873
L7305 6873
L7230 6892
L7193 6929
L7174 6967
" />
<path d="M7568 7304
L7174 7304
L7568 7529
L7174 7529
" />
<path d="M7605 7623
L7605 7923
" />
<path d="M7455 7998
L7455 8185
" />
<path d="M7568 7960
L7174 8092
L7568 8223
" />
<path d="M7568 8354
L7174 8354
L7568 8579
L7174 8579
" />
<path d="M7174 8841
L7174 8916
L7193 8954
L7230 8991
L7305 9010
L7436 9010
L7511 8991
L7549 8954
L7568 8916
L7568 8841
L7549 8804
L7511 8766
L7436 8748
L7305 8748
L7230 8766
L7193 8804
L7174 8841
" />
<path d="M7568 9179
L7174 9179
L7174 9273
L7193 9329
L7230 9366
L7268 9385
L7343 9404
L7399 9404
L7474 9385
L7511 9366
L7549 9329
L7568 9273
L7568 9179
" />
<path d="M7361 9573
L7361 9704
" />
<path d="M7568 9760
L7568 9573
L7174 9573
L7174 9760
" />
<path d="M6938 5748
L6544 5748
L6544 5842
L6563 5898
L6601 5936
L6638 5954
L6713 5973
L6769 5973
L6844 5954
L6882 5936
L6919 5898
L6938 5842
L6938 5748
" />
<path d="M6582 6123
L6563 6142
L6544 6179
L6544 6273
L6563 6311
L6582 6329
L6619 6348
L6657 6348
L6713 6329
L6938 6104
L6938 6348
" />
<path d="M4104 2523
L4104 2336
L3710 2336
" />
<path d="M3897 2655
L3897 2786
" />
<path d="M4104 2842
L4104 2655
L3710 2655
L3710 2842
" />
<path d="M4104 3011
L3710 3011
L3710 3105
L3729 3161
L3766 3198
L3804 3217
L3879 3236
L3935 3236
L4010 3217
L4047 3198
L4085 3161
L4104 3105
L4104 3011
" />
<path d="M4141 3311
L4141 3611
" />
<path d="M4104 3930
L3916 3798
" />
<path d="M4104 3705
L3710 3705
L3710 3855
L3729 3892
L3747 3911
L3785 3930
L3841 3930
L3879 3911
L3897 3892
L3916 3855
L3916 3705
" />
<path d="M3729 4305
L3710 4267
L3710 4211
L3729 4155
L3766 4117
L3804 4098
L3879 4080
L3935 4080
L4010 4098
L4047 4117
L4085 4155
L4104 4211
L4104 4248
L4085 4305
L4066 4323
L3935 4323
L3935 4248
" />
<path d="M3897 4623
L3916 4679
L3935 4698
L3972 4717
L4029 4717
L4066 4698
L4085 4679
L4104 4642
L4104 4492
L3710 4492
L3710 4623
L3729 4661
L3747 4679
L3785 4698
L3822 4698
L3860 4679
L3879 4661
L3897 4623
L3897 4492
" />
<path d="M4141 4792
L4141 5092
" />
<path d="M4066 5411
L4085 5392
L4104 5336
L4104 5298
L4085 5242
L4047 5204
L4010 5186
L3935 5167
L3879 5167
L3804 5186
L3766 5204
L3729 5242
L3710 5298
L3710 5336
L3729 5392
L3747 5411
" />
<path d="M3710 5654
L3710 5729
L3729 5767
L3766 5804
L3841 5823
L3972 5823
L4047 5804
L4085 5767
L4104 5729
L4104 5654
L4085 5617
L4047 5579
L3972 5561
L3841 5561
L3766 5579
L3729 5617
L3710 5654
" />
<path d="M4104 5992
L3710 5992
L3991 6123
L3710 6254
L4104 6254
" />
<path d="M4104 6442
L3710 6442
L3991 6573
L3710 6704
L4104 6704
" />
<path d="M3710 6967
L3710 7042
L3729 7079
L3766 7117
L3841 7135
L3972 7135
L4047 7117
L4085 7079
L4104 7042
L4104 6967
L4085 6929
L4047 6892
L3972 6873
L3841 6873
L3766 6892
L3729 6929
L3710 6967
" />
<path d="M4104 7304
L3710 7304
L4104 7529
L3710 7529
" />
<path d="M4141 7623
L4141 7923
" />
<path d="M3991 7998
L3991 8185
" />
<path d="M4104 7960
L3710 8092
L4104 8223
" />
<path d="M4104 8354
L3710 8354
L4104 8579
L3710 8579
" />
<path d="M3710 8841
L3710 8916
L3729 8954
L3766 8991
L3841 9010
L3972 9010
L4047 8991
L4085 8954
L4104 8916
L4104 8841
L4085 8804
L4047 8766
L3972 8748
L3841 8748
L3766 8766
L3729 8804
L3710 8841
" />
<path d="M4104 9179
L3710 9179
L3710 9273
L3729 9329
L3766 9366
L3804 9385
L3879 9404
L3935 9404
L4010 9385
L4047 9366
L4085 9329
L4104 9273
L4104 9179
" />
<path d="M3897 9573
L3897 9704
" />
<path d="M4104 9760
L4104 9573
L3710 9573
L3710 9760
" />
<path d="M8104 8317
L8104 7923
L8011 7923
L7954 7942
L7917 7979
L7898 8017
L7879 8092
L7879 8148
L7898 8223
L7917 8261
L7954 8298
L8011 8317
L8104 8317
" />
<path d="M7692 8317
L7617 8317
L7579 8298
L7561 8279
L7523 8223
L7504 8148
L7504 7998
L7523 7961
L7542 7942
L7579 7923
L7654 7923
L7692 7942
L7711 7961
L7729 7998
L7729 8092
L7711 8129
L7692 8148
L7654 8167
L7579 8167
L7542 8148
L7523 8129
L7504 8092
" />
<path d="M7367 6217
L7554 6217
L7554 5823
" />
<path d="M7236 6011
L7104 6011
" />
<path d="M7048 6217
L7236 6217
L7236 5823
L7048 5823
" />
<path d="M6879 6217
L6879 5823
L6786 5823
L6729 5842
L6692 5879
L6673 5917
L6654 5992
L6654 6048
L6673 6123
L6692 6161
L6729 6198
L6786 6217
L6879 6217
" />
<path d="M11759 8317
L11759 7923
L11665 7923
L11609 7942
L11571 7979
L11553 8017
L11534 8092
L11534 8148
L11553 8223
L11571 8261
L11609 8298
L11665 8317
L11759 8317
" />
<path d="M11159 8317
L11384 8317
" />
<path d="M11271 8317
L11271 7923
L11309 7979
L11346 8017
L11384 8036
" />
<path d="M10915 7923
L10878 7923
L10840 7942
L10821 7961
L10803 7998
L10784 8073
L10784 8167
L10803 8242
L10821 8279
L10840 8298
L10878 8317
L10915 8317
L10953 8298
L10971 8279
L10990 8242
L11009 8167
L11009 8073
L10990 7998
L10971 7961
L10953 7942
L10915 7923
" />
<path d="M10834 6217
L11021 6217
L11021 5823
" />
<path d="M10703 6011
L10571 6011
" />
<path d="M10515 6217
L10703 6217
L10703 5823
L10515 5823
" />
<path d="M10346 6217
L10346 5823
L10253 5823
L10196 5842
L10159 5879
L10140 5917
L10121 5992
L10121 6048
L10140 6123
L10159 6161
L10196 6198
L10253 6217
L10346 6217
" />
<path d="M15220 8317
L15220 7923
L15126 7923
L15070 7942
L15032 7979
L15014 8017
L14995 8092
L14995 8148
L15014 8223
L15032 8261
L15070 8298
L15126 8317
L15220 8317
" />
<path d="M14620 8317
L14845 8317
" />
<path d="M14732 8317
L14732 7923
L14770 7979
L14807 8017
L14845 8036
" />
<path d="M14245 8317
L14470 8317
" />
<path d="M14357 8317
L14357 7923
L14395 7979
L14432 8017
L14470 8036
" />
<path d="M14295 6217
L14482 6217
L14482 5823
" />
<path d="M14164 6011
L14032 6011
" />
<path d="M13976 6217
L14164 6217
L14164 5823
L13976 5823
" />
<path d="M13807 6217
L13807 5823
L13714 5823
L13657 5842
L13620 5879
L13601 5917
L13582 5992
L13582 6048
L13601 6123
L13620 6161
L13657 6198
L13714 6217
L13807 6217
" />
</g>
<g style="fill:#840000; fill-opacity:0.0; 
stroke:#840000; stroke-width:39.3701; stroke-opacity:1; 
stroke-linecap:round; stroke-linejoin:round;">
</g>
<g style="fill:#840000; fill-opacity:1.0; 
stroke:#840000; stroke-width:39.3701; stroke-opacity:1; 
stroke-linecap:round; stroke-linejoin:round;">
<polyline style="fill-rule:evenodd;"
points="6762,2859
6762,2218
7402,2218
7402,2859
6762,2859
" /> 
</g>
<g style="fill:#840000; fill-opacity:1.0; 
stroke:#840000; stroke-width:680; stroke-opacity:1; 
stroke-linecap:round; stroke-linejoin:round;">
</g>
<g style="fill:#840000; fill-opacity:0.0; 
stroke:#840000; stroke-width:680; stroke-opacity:1; 
stroke-linecap:round; stroke-linejoin:round;">
<path d="M7082 1539
L7082 1539
" />
<path d="M8082 2539
L8082 2539
" />
<path d="M8082 1539
L8082 1539
" />
</g>
<g style="fill:#840000; fill-opacity:0.0; 
stroke:#840000; stroke-width:39.3701; stroke-opacity:1; 
stroke-linecap:round; stroke-linejoin:round;">
</g>
<g style="fill:#840000; fill-opacity:1.0; 
stroke:#840000; stroke-width:39.3701; stroke-opacity:1; 
stroke-linecap:round; stroke-linejoin:round;">
<polyline style="fill-rule:evenodd;"
points="8762,2859
8762,2218
9402,2218
9402,2859
8762,2859
" /> 
</g>
<g style="fill:#840000; fill-opacity:1.0; 
stroke:#840000; stroke-width:680; stroke-opacity:1; 
stroke-linecap:round; stroke-linejoin:round;">
</g>
<g style="fill:#840000; fill-opacity:0.0; 
stroke:#840000; stroke-width:680; stroke-opacity:1; 
stroke-linecap:round; stroke-linejoin:round;">
<path d="M9082 1539
L9082 1539
" />
<path d="M10082 2539
L10082 2539
" />
<path d="M10082 1539
L10082 1539
" />
</g>
<g style="fill:#840000; fill-opacity:0.0; 
stroke:#840000; stroke-width:39.3701; stroke-opacity:1; 
stroke-linecap:round; stroke-linejoin:round;">
</g>
<g style="fill:#840000; fill-opacity:1.0; 
stroke:#840000; stroke-width:39.3701; stroke-opacity:1; 
stroke-linecap:round; stroke-linejoin:round;">
<polyline style="fill-rule:evenodd;"
points="10762,2859
10762,2218
11402,2218
11402,2859
10762,2859
" /> 
</g>
<g style="fill:#840000; fill-opacity:1.0; 
stroke:#840000; stroke-width:680; stroke-opacity:1; 
stroke-linecap:round; stroke-linejoin:round;">
</g>
<g style="fill:#840000; fill-opacity:0.0; 
stroke:#840000; stroke-width:680; stroke-opacity:1; 
stroke-linecap:round; stroke-linejoin:round;">
<path d="M11082 1539
L11082 1539
" />
<path d="M12082 2539
L12082 2539
" />
<path d="M12082 1539
L12082 1539
" />
</g>
<g style="fill:#840000; fill-opacity:0.0; 
stroke:#840000; stroke-width:39.3701; stroke-opacity:1; 
stroke-linecap:round; stroke-linejoin:round;">
</g>
<g style="fill:#840000; fill-opacity:1.0; 
stroke:#840000; stroke-width:39.3701; stroke-opacity:1; 
stroke-linecap:round; stroke-linejoin:round;">
<polyline style="fill-rule:evenodd;"
points="12762,2859
12762,2218
13402,2218
13402,2859
12762,2859
" /> 
</g>
<g style="fill:#840000; fill-opacity:1.0; 
stroke:#840000; stroke-width:680; stroke-opacity:1; 
stroke-linecap:round; stroke-linejoin:round;">
</g>
<g style="fill:#840000; fill-opacity:0.0; 
stroke:#840000; stroke-width:680; stroke-opacity:1; 
stroke-linecap:round; stroke-linejoin:round;">
<path d="M13082 1539
L13082 1539
" />
<path d="M14082 2539
L14082 2539
" />
<path d="M14082 1539
L14082 1539
" />
</g>
<g style="fill:#008400; fill-opacity:0.0; 
stroke:#008400; stroke-width:39.3701; stroke-opacity:1; 
stroke-linecap:round; stroke-linejoin:round;">
</g>
<g style="fill:#008400; fill-opacity:1.0; 
stroke:#008400; stroke-width:39.3701; stroke-opacity:1; 
stroke-linecap:round; stroke-linejoin:round;">
<polyline style="fill-rule:evenodd;"
points="5287,4744
4877,4744
4877,4533
5287,4533
5287,4744
" /> 
<polyline style="fill-rule:evenodd;"
points="5287,4144
4877,4144
4877,3933
5287,3933
5287,4144
" /> 
<polyline style="fill-rule:evenodd;"
points="8787,4744
8377,4744
8377,4533
8787,4533
8787,4744
" /> 
<polyline style="fill-rule:evenodd;"
points="8787,4144
8377,4144
8377,3933
8787,3933
8787,4144
" /> 
<polyline style="fill-rule:evenodd;"
points="12187,4744
11777,4744
11777,4533
12187,4533
12187,4744
" /> 
<polyline style="fill-rule:evenodd;"
points="12187,4144
11777,4144
11777,3933
12187,3933
12187,4144
" /> 
<polyline style="fill-rule:evenodd;"
points="15277,3933
15687,3933
15687,4144
15277,4144
15277,3933
" /> 
<polyline style="fill-rule:evenodd;"
points="15277,4533
15687,4533
15687,4744
15277,4744
15277,4533
" /> 
<polyline style="fill-rule:evenodd;"
points="15282,5724
15282,5173
15676,5173
15676,5724
15282,5724
" /> 
<polyline style="fill-rule:evenodd;"
points="15873,5724
15873,5173
16266,5173
16266,5724
15873,5724
" /> 
<polyline style="fill-rule:evenodd;"
points="15873,6905
15873,6354
16266,6354
16266,6905
15873,6905
" /> 
<polyline style="fill-rule:evenodd;"
points="15282,6905
15282,6354
15676,6354
15676,6905
15282,6905
" /> 
<polyline style="fill-rule:evenodd;"
points="11818,5724
11818,5173
12212,5173
12212,5724
11818,5724
" /> 
<polyline style="fill-rule:evenodd;"
points="12409,5724
12409,5173
12802,5173
12802,5724
12409,5724
" /> 
<polyline style="fill-rule:evenodd;"
points="12409,6905
12409,6354
12802,6354
12802,6905
12409,6905
" /> 
<polyline style="fill-rule:evenodd;"
points="11818,6905
11818,6354
12212,6354
12212,6905
11818,6905
" /> 
<polyline style="fill-rule:evenodd;"
points="8354,5724
8354,5173
8748,5173
8748,5724
8354,5724
" /> 
<polyline style="fill-rule:evenodd;"
points="8945,5724
8945,5173
9338,5173
9338,5724
8945,5724
" /> 
<polyline style="fill-rule:evenodd;"
points="8945,6905
8945,6354
9338,6354
9338,6905
8945,6905
" /> 
<polyline style="fill-rule:evenodd;"
points="8354,6905
8354,6354
8748,6354
8748,6905
8354,6905
" /> 
<polyline style="fill-rule:evenodd;"
points="4890,5724
4890,5173
5284,5173
5284,5724
4890,5724
" /> 
<polyline style="fill-rule:evenodd;"
points="5481,5724
5481,5173
5874,5173
5874,5724
5481,5724
" /> 
<polyline style="fill-rule:evenodd;"
points="5481,6905
5481,6354
5874,6354
5874,6905
5481,6905
" /> 
<polyline style="fill-rule:evenodd;"
points="4890,6905
4890,6354
5284,6354
5284,6905
4890,6905
" /> 
</g>
<g style="fill:#840000; fill-opacity:1.0; 
stroke:#840000; stroke-width:39.3701; stroke-opacity:1; 
stroke-linecap:round; stroke-linejoin:round;">
<circle cx="6614.28" cy="7039.17" r="310.315" /> 
<circle cx="7614.28" cy="7039.17" r="310.315" /> 
<circle cx="10081.3" cy="7039.17" r="310.315" /> 
<circle cx="11081.3" cy="7039.17" r="310.315" /> 
<circle cx="13542.3" cy="7039.17" r="310.315" /> 
<circle cx="14542.3" cy="7039.17" r="310.315" /> 
</g>
<g style="fill:#840000; fill-opacity:1.0; 
stroke:#840000; stroke-width:39.3701; stroke-opacity:1; 
stroke-linecap:round; stroke-linejoin:round;">
<polyline style="fill-rule:evenodd;"
points="6762,2859
6762,2218
7402,2218
7402,2859
6762,2859
" /> 
</g>
<g style="fill:#840000; fill-opacity:1.0; 
stroke:#840000; stroke-width:680; stroke-opacity:1; 
stroke-linecap:round; stroke-linejoin:round;">
</g>
<g style="fill:#840000; fill-opacity:0.0; 
stroke:#840000; stroke-width:680; stroke-opacity:1; 
stroke-linecap:round; stroke-linejoin:round;">
<path d="M7082 1539
L7082 1539
" />
<path d="M8082 2539
L8082 2539
" />
<path d="M8082 1539
L8082 1539
" />
</g>
<g style="fill:#840000; fill-opacity:0.0; 
stroke:#840000; stroke-width:39.3701; stroke-opacity:1; 
stroke-linecap:round; stroke-linejoin:round;">
</g>
<g style="fill:#840000; fill-opacity:1.0; 
stroke:#840000; stroke-width:39.3701; stroke-opacity:1; 
stroke-linecap:round; stroke-linejoin:round;">
<polyline style="fill-rule:evenodd;"
points="8762,2859
8762,2218
9402,2218
9402,2859
8762,2859
" /> 
</g>
<g style="fill:#840000; fill-opacity:1.0; 
stroke:#840000; stroke-width:680; stroke-opacity:1; 
stroke-linecap:round; stroke-linejoin:round;">
</g>
<g style="fill:#840000; fill-opacity:0.0; 
stroke:#840000; stroke-width:680; stroke-opacity:1; 
stroke-linecap:round; stroke-linejoin:round;">
<path d="M9082 1539
L9082 1539
" />
<path d="M10082 2539
L10082 2539
" />
<path d="M10082 1539
L10082 1539
" />
</g>
<g style="fill:#840000; fill-opacity:0.0; 
stroke:#840000; stroke-width:39.3701; stroke-opacity:1; 
stroke-linecap:round; stroke-linejoin:round;">
</g>
<g style="fill:#840000; fill-opacity:1.0; 
stroke:#840000; stroke-width:39.3701; stroke-opacity:1; 
stroke-linecap:round; stroke-linejoin:round;">
<polyline style="fill-rule:evenodd;"
points="10762,2859
10762,2218
11402,2218
11402,2859
10762,2859
" /> 
</g>
<g style="fill:#840000; fill-opacity:1.0; 
stroke:#840000; stroke-width:680; stroke-opacity:1; 
stroke-linecap:round; stroke-linejoin:round;">
</g>
<g style="fill:#840000; fill-opacity:0.0; 
stroke:#840000; stroke-width:680; stroke-opacity:1; 
stroke-linecap:round; stroke-linejoin:round;">
<path d="M11082 1539
L11082 1539
" />
<path d="M12082 2539
L12082 2539
" />
<path d="M12082 1539
L12082 1539
" />
</g>
<g style="fill:#840000; fill-opacity:0.0; 
stroke:#840000; stroke-width:39.3701; stroke-opacity:1; 
stroke-linecap:round; stroke-linejoin:round;">
</g>
<g style="fill:#840000; fill-opacity:1.0; 
stroke:#840000; stroke-width:39.3701; stroke-opacity:1; 
stroke-linecap:round; stroke-linejoin:round;">
<polyline style="fill-rule:evenodd;"
points="12762,2859
12762,2218
13402,2218
13402,2859
12762,2859
" /> 
</g>
<g style="fill:#840000; fill-opacity:1.0; 
stroke:#840000; stroke-width:680; stroke-opacity:1; 
stroke-linecap:round; stroke-linejoin:round;">
</g>
<g style="fill:#840000; fill-opacity:0.0; 
stroke:#840000; stroke-width:680; stroke-opacity:1; 
stroke-linecap:round; stroke-linejoin:round;">
<path d="M13082 1539
L13082 1539
" />
<path d="M14082 2539
L14082 2539
" />
<path d="M14082 1539
L14082 1539
" />
</g>
<g style="fill:#008400; fill-opacity:0.0; 
stroke:#008400; stroke-width:39.3701; stroke-opacity:1; 
stroke-linecap:round; stroke-linejoin:round;">
</g>
<g style="fill:#008400; fill-opacity:1.0; 
stroke:#008400; stroke-width:39.3701; stroke-opacity:1; 
stroke-linecap:round; stroke-linejoin:round;">
<polyline style="fill-rule:evenodd;"
points="5287,4744
4877,4744
4877,4533
5287,4533
5287,4744
" /> 
<polyline style="fill-rule:evenodd;"
points="5287,4144
4877,4144
4877,3933
5287,3933
5287,4144
" /> 
<polyline style="fill-rule:evenodd;"
points="8787,4744
8377,4744
8377,4533
8787,4533
8787,4744
" /> 
<polyline style="fill-rule:evenodd;"
points="8787,4144
8377,4144
8377,3933
8787,3933
8787,4144
" /> 
<polyline style="fill-rule:evenodd;"
points="12187,4744
11777,4744
11777,4533
12187,4533
12187,4744
" /> 
<polyline style="fill-rule:evenodd;"
points="12187,4144
11777,4144
11777,3933
12187,3933
12187,4144
" /> 
<polyline style="fill-rule:evenodd;"
points="15277,3933
15687,3933
15687,4144
15277,4144
15277,3933
" /> 
<polyline style="fill-rule:evenodd;"
points="15277,4533
15687,4533
15687,4744
15277,4744
15277,4533
" /> 
<polyline style="fill-rule:evenodd;"
points="15282,5724
15282,5173
15676,5173
15676,5724
15282,5724
" /> 
<polyline style="fill-rule:evenodd;"
points="15873,5724
15873,5173
16266,5173
16266,5724
15873,5724
" /> 
<polyline style="fill-rule:evenodd;"
points="15873,6905
15873,6354
16266,6354
16266,6905
15873,6905
" /> 
<polyline style="fill-rule:evenodd;"
points="15282,6905
15282,6354
15676,6354
15676,6905
15282,6905
" /> 
<polyline style="fill-rule:evenodd;"
points="11818,5724
11818,5173
12212,5173
12212,5724
11818,5724
" /> 
<polyline style="fill-rule:evenodd;"
points="12409,5724
12409,5173
12802,5173
12802,5724
12409,5724
" /> 
<polyline style="fill-rule:evenodd;"
points="12409,6905
12409,6354
12802,6354
12802,6905
12409,6905
" /> 
<polyline style="fill-rule:evenodd;"
points="11818,6905
11818,6354
12212,6354
12212,6905
11818,6905
" /> 
<polyline style="fill-rule:evenodd;"
points="8354,5724
8354,5173
8748,5173
8748,5724
8354,5724
" /> 
<polyline style="fill-rule:evenodd;"
points="8945,5724
8945,5173
9338,5173
9338,5724
8945,5724
" /> 
<polyline style="fill-rule:evenodd;"
points="8945,6905
8945,6354
9338,6354
9338,6905
8945,6905
" /> 
<polyline style="fill-rule:evenodd;"
points="8354,6905
8354,6354
8748,6354
8748,6905
8354,6905
" /> 
<polyline style="fill-rule:evenodd;"
points="4890,5724
4890,5173
5284,5173
5284,5724
4890,5724
" /> 
<polyline style="fill-rule:evenodd;"
points="5481,5724
5481,5173
5874,5173
5874,5724
5481,5724
" /> 
<polyline style="fill-rule:evenodd;"
points="5481,6905
5481,6354
5874,6354
5874,6905
5481,6905
" /> 
<polyline style="fill-rule:evenodd;"
points="4890,6905
4890,6354
5284,6354
5284,6905
4890,6905
" /> 
</g>
<g style="fill:#840000; fill-opacity:1.0; 
stroke:#840000; stroke-width:39.3701; stroke-opacity:1; 
stroke-linecap:round; stroke-linejoin:round;">
<circle cx="6614.28" cy="7039.17" r="310.315" /> 
<circle cx="7614.28" cy="7039.17" r="310.315" /> 
<circle cx="10081.3" cy="7039.17" r="310.315" /> 
<circle cx="11081.3" cy="7039.17" r="310.315" /> 
<circle cx="13542.3" cy="7039.17" r="310.315" /> 
<circle cx="14542.3" cy="7039.17" r="310.315" /> 
</g>
<g style="fill:#C2C2C2; fill-opacity:1.0; 
stroke:#C2C2C2; stroke-width:39.3701; stroke-opacity:1; 
stroke-linecap:round; stroke-linejoin:round;">
<circle cx="6482.62" cy="3639.17" r="155.315" /> 
<circle cx="6882.62" cy="4039.17" r="155.315" /> 
<circle cx="5582.62" cy="3939.17" r="155.315" /> 
<circle cx="9282.62" cy="3239.17" r="155.315" /> 
<circle cx="9782.62" cy="4039.17" r="155.315" /> 
<circle cx="12682.6" cy="3839.17" r="155.315" /> 
<circle cx="13082.6" cy="4539.17" r="155.315" /> 
<circle cx="8482.62" cy="3439.17" r="155.315" /> 
<circle cx="11482.6" cy="5539.17" r="155.315" /> 
<circle cx="14782.6" cy="5439.17" r="155.315" /> 
</g>
<g style="fill:#008400; fill-opacity:1.0; 
stroke:#008400; stroke-width:100; stroke-opacity:1; 
stroke-linecap:round; stroke-linejoin:round;">
</g>
<g style="fill:#008400; fill-opacity:0.0; 
stroke:#008400; stroke-width:100; stroke-opacity:1; 
stroke-linecap:round; stroke-linejoin:round;">
<path d="M5087 5734
L5087 5448
" />
<path d="M5087 5448
L5087 5251
" />
<path d="M7082 1639
L7082 1539
" />
<path d="M7082 1639
L7082 1539
" />
<path d="M5482 4839
L5982 4839
" />
<path d="M5982 4839
L5982 3139
" />
<path d="M5982 3139
L5982 3039
" />
<path d="M5982 3039
L6582 2439
" />
<path d="M6582 2439
L6582 2139
" />
<path d="M6582 2139
L7082 1639
" />
<path d="M5087 5234
L5482 4839
" />
<path d="M5087 5448
L5087 5234
" />
<path d="M6282 4843
L5677 5448
" />
<path d="M6282 3839
L6282 4843
" />
<path d="M6482 3639
L6282 3839
" />
<path d="M5677 6629
L5677 6434
" />
<path d="M8082 2839
L6882 4039
" />
<path d="M8082 2539
L8082 2839
" />
<path d="M6882 5639
L6882 4039
" />
<path d="M5892 6629
L6882 5639
" />
<path d="M5677 6629
L5892 6629
" />
<path d="M4582 6139
L4582 5139
" />
<path d="M4582 5139
L5082 4639
" />
<path d="M5073 6629
L4582 6139
" />
<path d="M5087 6629
L5073 6629
" />
<path d="M5482 4039
L5582 3939
" />
<path d="M5482 4039
L5582 3939
" />
<path d="M5482 4039
L5582 3939
" />
<path d="M5082 4039
L5482 4039
" />
<path d="M5082 4039
L5082 4639
" />
<path d="M6137 7039
L6020 7156
" />
<path d="M6020 7156
L5193 7156
" />
<path d="M5193 7156
L5087 7050
" />
<path d="M5087 7050
L5087 6629
" />
<path d="M6614 7039
L6137 7039
" />
<path d="M9382 5207
L9141 5448
" />
<path d="M9382 3339
L9382 5207
" />
<path d="M9282 3239
L9382 3339
" />
<path d="M9141 6629
L9141 6398
" />
<path d="M10082 3739
L9782 4039
" />
<path d="M10082 2539
L10082 3739
" />
<path d="M9782 6150
L9782 4039
" />
<path d="M9303 6629
L9782 6150
" />
<path d="M9141 6629
L9303 6629
" />
<path d="M12682 3839
L12605 3915
" />
<path d="M12605 3915
L12605 5448
" />
<path d="M12082 3039
L12382 3339
" />
<path d="M12382 3339
L12782 3339
" />
<path d="M12782 3339
L13082 3639
" />
<path d="M13082 3639
L13082 4539
" />
<path d="M12082 2539
L12082 3039
" />
<path d="M13082 6153
L12605 6629
" />
<path d="M13082 4539
L13082 6153
" />
<path d="M16069 3826
L16069 5448
" />
<path d="M15882 3639
L16069 3826
" />
<path d="M14482 3639
L15882 3639
" />
<path d="M13582 2739
L14482 3639
" />
<path d="M13582 2339
L13582 2739
" />
<path d="M14082 1839
L13582 2339
" />
<path d="M14082 1539
L14082 1839
" />
<path d="M16069 6629
L16092 6629
" />
<path d="M14082 2539
L14082 2639
" />
<path d="M14582 3339
L16082 3339
" />
<path d="M16082 3339
L16582 3839
" />
<path d="M16582 3839
L16582 6117
" />
<path d="M16582 6117
L16069 6629
" />
<path d="M14082 2839
L14582 3339
" />
<path d="M14082 2539
L14082 2839
" />
<path d="M8582 2039
L9082 1539
" />
<path d="M8582 3039
L8582 2039
" />
<path d="M9082 3539
L8582 3039
" />
<path d="M9082 4739
L9082 3539
" />
<path d="M8551 5270
L9082 4739
" />
<path d="M8551 5448
L8551 5270
" />
<path d="M8582 4639
L8582 4039
" />
<path d="M8082 5139
L8582 4639
" />
<path d="M8082 6139
L8082 5139
" />
<path d="M8551 6607
L8082 6139
" />
<path d="M8551 6629
L8551 6607
" />
<path d="M8482 3439
L8582 3539
" />
<path d="M8582 3539
L8482 3439
" />
<path d="M8582 4039
L8582 3539
" />
<path d="M9602 7039
L9484 7156
" />
<path d="M9484 7156
L8736 7156
" />
<path d="M8736 7156
L8551 6970
" />
<path d="M8551 6970
L8551 6629
" />
<path d="M10081 7039
L9602 7039
" />
<path d="M11573 5448
L12015 5448
" />
<path d="M11482 5539
L11573 5448
" />
<path d="M11982 4639
L11982 4039
" />
<path d="M11582 4639
L11982 4639
" />
<path d="M11082 5139
L11582 4639
" />
<path d="M11082 5739
L11082 5139
" />
<path d="M11973 6629
L11082 5739
" />
<path d="M12015 6629
L11973 6629
" />
<path d="M11082 3139
L11982 4039
" />
<path d="M11082 2539
L11082 3139
" />
<path d="M12015 7145
L12015 6629
" />
<path d="M12004 7156
L12015 7145
" />
<path d="M13382 7156
L12004 7156
" />
<path d="M13499 7039
L13382 7156
" />
<path d="M13542 7039
L13499 7039
" />
<path d="M14792 5448
L14782 5439
" />
<path d="M15479 5448
L14792 5448
" />
<path d="M15482 4639
L15482 4039
" />
<path d="M15479 6629
L15373 6629
" />
<path d="M13082 2539
L14082 3539
" />
<path d="M14182 4039
L15482 4039
" />
<path d="M14082 3939
L14182 4039
" />
<path d="M14082 3539
L14082 3939
" />
<path d="M14445 5778
L14445 4991
" />
<path d="M14445 4991
L14797 4639
" />
<path d="M14797 4639
L15482 4639
" />
<path d="M15296 6629
L14445 5778
" />
<path d="M15479 6629
L15296 6629
" />
</g>
<g style="fill:#FFFFFF; fill-opacity:0.0; 
stroke:#FFFFFF; stroke-width:39.3701; stroke-opacity:1; 
stroke-linecap:round; stroke-linejoin:round;">
</g>
<g style="fill:#FFFFFF; fill-opacity:1.0; 
stroke:#FFFFFF; stroke-width:39.3701; stroke-opacity:1; 
stroke-linecap:round; stroke-linejoin:round;">
<circle cx="6482.62" cy="3639.17" r="105.315" /> 
<circle cx="6882.62" cy="4039.17" r="105.315" /> 
<circle cx="5582.62" cy="3939.17" r="105.315" /> 
<circle cx="9282.62" cy="3239.17" r="105.315" /> 
<circle cx="9782.62" cy="4039.17" r="105.315" /> 
<circle cx="12682.6" cy="3839.17" r="105.315" /> 
<circle cx="13082.6" cy="4539.17" r="105.315" /> 
<circle cx="8482.62" cy="3439.17" r="105.315" /> 
<circle cx="11482.6" cy="5539.17" r="105.315" /> 
<circle cx="14782.6" cy="5439.17" r="105.315" /> 
<circle cx="7082.62" cy="2539.17" r="180.315" /> 
<circle cx="7082.62" cy="1539.17" r="180.315" /> 
<circle cx="8082.62" cy="2539.17" r="180.315" /> 
<circle cx="8082.62" cy="1539.17" r="180.315" /> 
<circle cx="9082.62" cy="2539.17" r="180.315" /> 
<circle cx="9082.62" cy="1539.17" r="180.315" /> 
<circle cx="10082.6" cy="2539.17" r="180.315" /> 
<circle cx="10082.6" cy="1539.17" r="180.315" /> 
<circle cx="11082.6" cy="2539.17" r="180.315" /> 
<circle cx="11082.6" cy="1539.17" r="180.315" /> 
<circle cx="12082.6" cy="2539.17" r="180.315" /> 
<circle cx="12082.6" cy="1539.17" r="180.315" /> 
<circle cx="13082.6" cy="2539.17" r="180.315" /> 
<circle cx="13082.6" cy="1539.17" r="180.315" /> 
<circle cx="14082.6" cy="2539.17" r="180.315" /> 
<circle cx="14082.6" cy="1539.17" r="180.315" /> 
<circle cx="15774.6" cy="2039.17" r="570.815" /> 
<circle cx="5382.62" cy="2039.17" r="570.815" /> 
<circle cx="14042.6" cy="9039.17" r="570.815" /> 
<circle cx="7114.62" cy="9039.17" r="570.815" /> 
<circle cx="6614.28" cy="7039.17" r="140.315" /> 
<circle cx="7614.28" cy="7039.17" r="140.315" /> 
<circle cx="10081.3" cy="7039.17" r="140.315" /> 
<circle cx="11081.3" cy="7039.17" r="140.315" /> 
<circle cx="13542.3" cy="7039.17" r="140.315" /> 
<circle cx="14542.3" cy="7039.17" r="140.315" /> 
</g>
<g style="fill:#840000; fill-opacity:1.0; 
stroke:#840000; stroke-width:39.3701; stroke-opacity:1; 
stroke-linecap:round; stroke-linejoin:round;">
<polyline style="fill-rule:evenodd;"
points="6762,2859
6762,2218
7402,2218
7402,2859
6762,2859
" /> 
</g>
<g style="fill:#840000; fill-opacity:1.0; 
stroke:#840000; stroke-width:680; stroke-opacity:1; 
stroke-linecap:round; stroke-linejoin:round;">
</g>
<g style="fill:#840000; fill-opacity:0.0; 
stroke:#840000; stroke-width:680; stroke-opacity:1; 
stroke-linecap:round; stroke-linejoin:round;">
<path d="M7082 1539
L7082 1539
" />
<path d="M8082 2539
L8082 2539
" />
<path d="M8082 1539
L8082 1539
" />
</g>
<g style="fill:#840000; fill-opacity:0.0; 
stroke:#840000; stroke-width:39.3701; stroke-opacity:1; 
stroke-linecap:round; stroke-linejoin:round;">
</g>
<g style="fill:#840000; fill-opacity:1.0; 
stroke:#840000; stroke-width:39.3701; stroke-opacity:1; 
stroke-linecap:round; stroke-linejoin:round;">
<polyline style="fill-rule:evenodd;"
points="8762,2859
8762,2218
9402,2218
9402,2859
8762,2859
" /> 
</g>
<g style="fill:#840000; fill-opacity:1.0; 
stroke:#840000; stroke-width:680; stroke-opacity:1; 
stroke-linecap:round; stroke-linejoin:round;">
</g>
<g style="fill:#840000; fill-opacity:0.0; 
stroke:#840000; stroke-width:680; stroke-opacity:1; 
stroke-linecap:round; stroke-linejoin:round;">
<path d="M9082 1539
L9082 1539
" />
<path d="M10082 2539
L10082 2539
" />
<path d="M10082 1539
L10082 1539
" />
</g>
<g style="fill:#840000; fill-opacity:0.0; 
stroke:#840000; stroke-width:39.3701; stroke-opacity:1; 
stroke-linecap:round; stroke-linejoin:round;">
</g>
<g style="fill:#840000; fill-opacity:1.0; 
stroke:#840000; stroke-width:39.3701; stroke-opacity:1; 
stroke-linecap:round; stroke-linejoin:round;">
<polyline style="fill-rule:evenodd;"
points="10762,2859
10762,2218
11402,2218
11402,2859
10762,2859
" /> 
</g>
<g style="fill:#840000; fill-opacity:1.0; 
stroke:#840000; stroke-width:680; stroke-opacity:1; 
stroke-linecap:round; stroke-linejoin:round;">
</g>
<g style="fill:#840000; fill-opacity:0.0; 
stroke:#840000; stroke-width:680; stroke-opacity:1; 
stroke-linecap:round; stroke-linejoin:round;">
<path d="M11082 1539
L11082 1539
" />
<path d="M12082 2539
L12082 2539
" />
<path d="M12082 1539
L12082 1539
" />
</g>
<g style="fill:#840000; fill-opacity:0.0; 
stroke:#840000; stroke-width:39.3701; stroke-opacity:1; 
stroke-linecap:round; stroke-linejoin:round;">
</g>
<g style="fill:#840000; fill-opacity:1.0; 
stroke:#840000; stroke-width:39.3701; stroke-opacity:1; 
stroke-linecap:round; stroke-linejoin:round;">
<polyline style="fill-rule:evenodd;"
points="12762,2859
12762,2218
13402,2218
13402,2859
12762,2859
" /> 
</g>
<g style="fill:#840000; fill-opacity:1.0; 
stroke:#840000; stroke-width:680; stroke-opacity:1; 
stroke-linecap:round; stroke-linejoin:round;">
</g>
<g style="fill:#840000; fill-opacity:0.0; 
stroke:#840000; stroke-width:680; stroke-opacity:1; 
stroke-linecap:round; stroke-linejoin:round;">
<path d="M13082 1539
L13082 1539
" />
<path d="M14082 2539
L14082 2539
" />
<path d="M14082 1539
L14082 1539
" />
</g>
<g style="fill:#840000; fill-opacity:0.0; 
stroke:#840000; stroke-width:39.3701; stroke-opacity:1; 
stroke-linecap:round; stroke-linejoin:round;">
</g>
<g style="fill:#840000; fill-opacity:1.0; 
stroke:#840000; stroke-width:39.3701; stroke-opacity:1; 
stroke-linecap:round; stroke-linejoin:round;">
<polyline style="fill-rule:evenodd;"
points="5287,4744
4877,4744
4877,4533
5287,4533
5287,4744
" /> 
<polyline style="fill-rule:evenodd;"
points="5287,4144
4877,4144
4877,3933
5287,3933
5287,4144
" /> 
<polyline style="fill-rule:evenodd;"
points="8787,4744
8377,4744
8377,4533
8787,4533
8787,4744
" /> 
<polyline style="fill-rule:evenodd;"
points="8787,4144
8377,4144
8377,3933
8787,3933
8787,4144
" /> 
<polyline style="fill-rule:evenodd;"
points="12187,4744
11777,4744
11777,4533
12187,4533
12187,4744
" /> 
<polyline style="fill-rule:evenodd;"
points="12187,4144
11777,4144
11777,3933
12187,3933
12187,4144
" /> 
<polyline style="fill-rule:evenodd;"
points="15687,4744
15277,4744
15277,4533
15687,4533
15687,4744
" /> 
<polyline style="fill-rule:evenodd;"
points="15687,4144
15277,4144
15277,3933
15687,3933
15687,4144
" /> 
<polyline style="fill-rule:evenodd;"
points="15282,6905
15282,6354
15676,6354
15676,6905
15282,6905
" /> 
<polyline style="fill-rule:evenodd;"
points="15873,6905
15873,6354
16266,6354
16266,6905
15873,6905
" /> 
<polyline style="fill-rule:evenodd;"
points="15873,5724
15873,5173
16266,5173
16266,5724
15873,5724
" /> 
<polyline style="fill-rule:evenodd;"
points="15282,5724
15282,5173
15676,5173
15676,5724
15282,5724
" /> 
<polyline style="fill-rule:evenodd;"
points="11818,6905
11818,6354
12212,6354
12212,6905
11818,6905
" /> 
<polyline style="fill-rule:evenodd;"
points="12409,6905
12409,6354
12802,6354
12802,6905
12409,6905
" /> 
<polyline style="fill-rule:evenodd;"
points="12409,5724
12409,5173
12802,5173
12802,5724
12409,5724
" /> 
<polyline style="fill-rule:evenodd;"
points="11818,5724
11818,5173
12212,5173
12212,5724
11818,5724
" /> 
<polyline style="fill-rule:evenodd;"
points="8354,6905
8354,6354
8748,6354
8748,6905
8354,6905
" /> 
<polyline style="fill-rule:evenodd;"
points="8945,6905
8945,6354
9338,6354
9338,6905
8945,6905
" /> 
<polyline style="fill-rule:evenodd;"
points="8945,5724
8945,5173
9338,5173
9338,5724
8945,5724
" /> 
<polyline style="fill-rule:evenodd;"
points="8354,5724
8354,5173
8748,5173
8748,5724
8354,5724
" /> 
<polyline style="fill-rule:evenodd;"
points="4890,6905
4890,6354
5284,6354
5284,6905
4890,6905
" /> 
<polyline style="fill-rule:evenodd;"
points="5481,6905
5481,6354
5874,6354
5874,6905
5481,6905
" /> 
<polyline style="fill-rule:evenodd;"
points="5481,5724
5481,5173
5874,5173
5874,5724
5481,5724
" /> 
<polyline style="fill-rule:evenodd;"
points="4890,5724
4890,5173
5284,5173
5284,5724
4890,5724
" /> 
<circle cx="6614.28" cy="7039.17" r="310.315" /> 
<circle cx="7614.28" cy="7039.17" r="310.315" /> 
<circle cx="10081.3" cy="7039.17" r="310.315" /> 
<circle cx="11081.3" cy="7039.17" r="310.315" /> 
<circle cx="13542.3" cy="7039.17" r="310.315" /> 
<circle cx="14542.3" cy="7039.17" r="310.315" /> 
</g>
<g style="fill:#C2C2C2; fill-opacity:1.0; 
stroke:#C2C2C2; stroke-width:39.3701; stroke-opacity:1; 
stroke-linecap:round; stroke-linejoin:round;">
<circle cx="6482.62" cy="3639.17" r="155.315" /> 
<circle cx="6882.62" cy="4039.17" r="155.315" /> 
<circle cx="5582.62" cy="3939.17" r="155.315" /> 
<circle cx="9282.62" cy="3239.17" r="155.315" /> 
<circle cx="9782.62" cy="4039.17" r="155.315" /> 
<circle cx="12682.6" cy="3839.17" r="155.315" /> 
<circle cx="13082.6" cy="4539.17" r="155.315" /> 
<circle cx="8482.62" cy="3439.17" r="155.315" /> 
<circle cx="11482.6" cy="5539.17" r="155.315" /> 
<circle cx="14782.6" cy="5439.17" r="155.315" /> 
</g>
<g style="fill:#840000; fill-opacity:1.0; 
stroke:#840000; stroke-width:100; stroke-opacity:1; 
stroke-linecap:round; stroke-linejoin:round;">
</g>
<g style="fill:#840000; fill-opacity:0.0; 
stroke:#840000; stroke-width:100; stroke-opacity:1; 
stroke-linecap:round; stroke-linejoin:round;">
<path d="M5087 6629
L5087 6343
" />
<path d="M4582 6125
L5087 6629
" />
<path d="M4582 3739
L4582 6125
" />
<path d="M4682 3639
L4582 3739
" />
<path d="M5382 3639
L4682 3639
" />
<path d="M6582 2439
L5382 3639
" />
<path d="M6582 2139
L6582 2439
" />
<path d="M7082 1639
L6582 2139
" />
<path d="M7082 1539
L7082 1639
" />
<path d="M7082 1639
L7082 1539
" />
<path d="M6582 2139
L7082 1639
" />
<path d="M6582 2439
L6582 2139
" />
<path d="M5087 7050
L5087 6629
" />
<path d="M5587 7550
L5087 7050
" />
<path d="M6807 7550
L5587 7550
" />
<path d="M7318 7039
L6807 7550
" />
<path d="M7614 7039
L7318 7039
" />
<path d="M6882 3639
L6482 3639
" />
<path d="M7582 2939
L6882 3639
" />
<path d="M7582 2239
L7582 2939
" />
<path d="M8082 1739
L7582 2239
" />
<path d="M8082 1539
L8082 1739
" />
<path d="M8082 1739
L8082 1539
" />
<path d="M7582 2239
L8082 1739
" />
<path d="M7582 2939
L7582 2239
" />
<path d="M7282 3239
L7582 2939
" />
<path d="M7282 5239
L7282 3239
" />
<path d="M5892 6629
L7282 5239
" />
<path d="M5677 6629
L5892 6629
" />
<path d="M5677 5643
L5677 5448
" />
<path d="M6282 4843
L5677 5448
" />
<path d="M6282 4639
L6282 4843
" />
<path d="M6882 4039
L6282 4639
" />
<path d="M5087 4643
L5082 4639
" />
<path d="M5087 5448
L5087 4643
" />
<path d="M6982 2539
L7082 2539
" />
<path d="M5582 3939
L6982 2539
" />
<path d="M5482 4039
L5582 3939
" />
<path d="M5082 4039
L5482 4039
" />
<path d="M5082 4639
L5082 4039
" />
<path d="M9582 2939
L9282 3239
" />
<path d="M9582 2139
L9582 2939
" />
<path d="M10082 1639
L9582 2139
" />
<path d="M10082 1539
L10082 1639
" />
<path d="M9882 3239
L9282 3239
" />
<path d="M10182 3539
L9882 3239
" />
<path d="M10182 5739
L10182 3539
" />
<path d="M9292 6629
L10182 5739
" />
<path d="M9141 6629
L9292 6629
" />
<path d="M9141 5679
L9141 5448
" />
<path d="M9782 4039
L9141 4679
" />
<path d="M9141 4679
L9141 5448
" />
<path d="M12482 3639
L12682 3839
" />
<path d="M12082 3639
L12482 3639
" />
<path d="M11582 3139
L12082 3639
" />
<path d="M11582 2039
L11582 3139
" />
<path d="M12082 1539
L11582 2039
" />
<path d="M12605 6629
L12792 6629
" />
<path d="M12992 6629
L13482 6139
" />
<path d="M13482 6139
L13482 4239
" />
<path d="M13482 4239
L13082 3839
" />
<path d="M13082 3839
L12682 3839
" />
<path d="M12605 6629
L12992 6629
" />
<path d="M13082 4539
L12605 5015
" />
<path d="M12605 5015
L12605 5448
" />
<path d="M16092 6629
L16069 6629
" />
<path d="M14482 1939
L14582 2039
" />
<path d="M14582 2039
L14582 2739
" />
<path d="M14582 2739
L15182 3339
" />
<path d="M15182 3339
L16082 3339
" />
<path d="M16082 3339
L16582 3839
" />
<path d="M16582 3839
L16582 6139
" />
<path d="M16582 6139
L16092 6629
" />
<path d="M14082 1539
L14482 1939
" />
<path d="M14091 2547
L14082 2539
" />
<path d="M16069 3851
L15882 3664
" />
<path d="M15882 3664
L14508 3664
" />
<path d="M14508 3664
L14091 3247
" />
<path d="M14091 3247
L14091 2547
" />
<path d="M16069 5448
L16069 3851
" />
<path d="M8582 2039
L8582 2839
" />
<path d="M8582 2839
L8082 3339
" />
<path d="M8082 3339
L8082 6161
" />
<path d="M8082 6161
L8551 6629
" />
<path d="M9082 1539
L8582 2039
" />
<path d="M8551 7049
L8551 6629
" />
<path d="M9051 7550
L8551 7049
" />
<path d="M10272 7550
L9051 7550
" />
<path d="M10783 7039
L10272 7550
" />
<path d="M11081 7039
L10783 7039
" />
<path d="M8582 4039
L8582 4639
" />
<path d="M8551 4670
L8582 4639
" />
<path d="M8551 5448
L8551 4670
" />
<path d="M9082 2839
L8482 3439
" />
<path d="M9082 2539
L9082 2839
" />
<path d="M8582 3539
L8482 3439
" />
<path d="M8582 4039
L8582 3539
" />
<path d="M10582 4639
L11482 5539
" />
<path d="M10582 1839
L10582 4639
" />
<path d="M10882 1539
L10582 1839
" />
<path d="M11082 1539
L10882 1539
" />
<path d="M11482 6097
L12015 6629
" />
<path d="M11482 5539
L11482 6097
" />
<path d="M12015 7088
L12015 6629
" />
<path d="M12516 7589
L12015 7088
" />
<path d="M13815 7589
L12516 7589
" />
<path d="M14366 7039
L13815 7589
" />
<path d="M14542 7039
L14366 7039
" />
<path d="M11982 4039
L11982 4639
" />
<path d="M12015 4671
L11982 4639
" />
<path d="M12015 5448
L12015 4671
" />
<path d="M11082 3139
L11982 4039
" />
<path d="M11082 2539
L11082 3139
" />
<path d="M12982 1539
L13082 1539
" />
<path d="M13782 3739
L13082 3039
" />
<path d="M13082 3039
L12582 3039
" />
<path d="M12582 3039
L12582 2639
" />
<path d="M12582 2639
L12582 1939
" />
<path d="M12582 1939
L12982 1539
" />
<path d="M12982 1539
L13082 1539
" />
<path d="M12582 1939
L12982 1539
" />
<path d="M12582 3039
L12582 1939
" />
<path d="M13082 3039
L12582 3039
" />
<path d="M13782 3739
L13082 3039
" />
<path d="M14782 5439
L13782 5439
" />
<path d="M13782 5439
L13782 3739
" />
<path d="M12982 1539
L13082 1539
" />
<path d="M12582 1939
L12982 1539
" />
<path d="M12582 3039
L12582 1939
" />
<path d="M13082 3039
L12582 3039
" />
<path d="M13782 3739
L13082 3039
" />
<path d="M13782 5439
L13782 3739
" />
<path d="M14106 5439
L13782 5439
" />
<path d="M15296 6629
L14106 5439
" />
<path d="M15479 6629
L15296 6629
" />
<path d="M15482 4039
L15482 4639
" />
<path d="M15482 5445
L15479 5448
" />
<path d="M15482 4639
L15482 5445
" />
<path d="M14182 4039
L14082 3939
" />
<path d="M14082 3939
L14082 3539
" />
<path d="M14082 3539
L13082 2539
" />
<path d="M15482 4039
L14182 4039
" />
</g>
<g style="fill:#FFFFFF; fill-opacity:0.0; 
stroke:#FFFFFF; stroke-width:39.3701; stroke-opacity:1; 
stroke-linecap:round; stroke-linejoin:round;">
</g>
<g style="fill:#FFFFFF; fill-opacity:1.0; 
stroke:#FFFFFF; stroke-width:39.3701; stroke-opacity:1; 
stroke-linecap:round; stroke-linejoin:round;">
<circle cx="6482.62" cy="3639.17" r="105.315" /> 
<circle cx="6882.62" cy="4039.17" r="105.315" /> 
<circle cx="5582.62" cy="3939.17" r="105.315" /> 
<circle cx="9282.62" cy="3239.17" r="105.315" /> 
<circle cx="9782.62" cy="4039.17" r="105.315" /> 
<circle cx="12682.6" cy="3839.17" r="105.315" /> 
<circle cx="13082.6" cy="4539.17" r="105.315" /> 
<circle cx="8482.62" cy="3439.17" r="105.315" /> 
<circle cx="11482.6" cy="5539.17" r="105.315" /> 
<circle cx="14782.6" cy="5439.17" r="105.315" /> 
<circle cx="7082.62" cy="2539.17" r="180.315" /> 
<circle cx="7082.62" cy="1539.17" r="180.315" /> 
<circle cx="8082.62" cy="2539.17" r="180.315" /> 
<circle cx="8082.62" cy="1539.17" r="180.315" /> 
<circle cx="9082.62" cy="2539.17" r="180.315" /> 
<circle cx="9082.62" cy="1539.17" r="180.315" /> 
<circle cx="10082.6" cy="2539.17" r="180.315" /> 
<circle cx="10082.6" cy="1539.17" r="180.315" /> 
<circle cx="11082.6" cy="2539.17" r="180.315" /> 
<circle cx="11082.6" cy="1539.17" r="180.315" /> 
<circle cx="12082.6" cy="2539.17" r="180.315" /> 
<circle cx="12082.6" cy="1539.17" r="180.315" /> 
<circle cx="13082.6" cy="2539.17" r="180.315" /> 
<circle cx="13082.6" cy="1539.17" r="180.315" /> 
<circle cx="14082.6" cy="2539.17" r="180.315" /> 
<circle cx="14082.6" cy="1539.17" r="180.315" /> 
<circle cx="15774.6" cy="2039.17" r="570.815" /> 
<circle cx="5382.62" cy="2039.17" r="570.815" /> 
<circle cx="14042.6" cy="9039.17" r="570.815" /> 
<circle cx="7114.62" cy="9039.17" r="570.815" /> 
<circle cx="6614.28" cy="7039.17" r="140.315" /> 
<circle cx="7614.28" cy="7039.17" r="140.315" /> 
<circle cx="10081.3" cy="7039.17" r="140.315" /> 
<circle cx="11081.3" cy="7039.17" r="140.315" /> 
<circle cx="13542.3" cy="7039.17" r="140.315" /> 
<circle cx="14542.3" cy="7039.17" r="140.315" /> 
</g>
<g style="fill:#840000; fill-opacity:1.0; 
stroke:#840000; stroke-width:39.3701; stroke-opacity:1; 
stroke-linecap:round; stroke-linejoin:round;">
<polyline style="fill-rule:evenodd;"
points="6762,2859
6762,2218
7402,2218
7402,2859
6762,2859
" /> 
</g>
<g style="fill:#840000; fill-opacity:1.0; 
stroke:#840000; stroke-width:680; stroke-opacity:1; 
stroke-linecap:round; stroke-linejoin:round;">
</g>
<g style="fill:#840000; fill-opacity:0.0; 
stroke:#840000; stroke-width:680; stroke-opacity:1; 
stroke-linecap:round; stroke-linejoin:round;">
<path d="M7082 1539
L7082 1539
" />
<path d="M8082 2539
L8082 2539
" />
<path d="M8082 1539
L8082 1539
" />
</g>
<g style="fill:#840000; fill-opacity:0.0; 
stroke:#840000; stroke-width:39.3701; stroke-opacity:1; 
stroke-linecap:round; stroke-linejoin:round;">
</g>
<g style="fill:#840000; fill-opacity:1.0; 
stroke:#840000; stroke-width:39.3701; stroke-opacity:1; 
stroke-linecap:round; stroke-linejoin:round;">
<polyline style="fill-rule:evenodd;"
points="8762,2859
8762,2218
9402,2218
9402,2859
8762,2859
" /> 
</g>
<g style="fill:#840000; fill-opacity:1.0; 
stroke:#840000; stroke-width:680; stroke-opacity:1; 
stroke-linecap:round; stroke-linejoin:round;">
</g>
<g style="fill:#840000; fill-opacity:0.0; 
stroke:#840000; stroke-width:680; stroke-opacity:1; 
stroke-linecap:round; stroke-linejoin:round;">
<path d="M9082 1539
L9082 1539
" />
<path d="M10082 2539
L10082 2539
" />
<path d="M10082 1539
L10082 1539
" />
</g>
<g style="fill:#840000; fill-opacity:0.0; 
stroke:#840000; stroke-width:39.3701; stroke-opacity:1; 
stroke-linecap:round; stroke-linejoin:round;">
</g>
<g style="fill:#840000; fill-opacity:1.0; 
stroke:#840000; stroke-width:39.3701; stroke-opacity:1; 
stroke-linecap:round; stroke-linejoin:round;">
<polyline style="fill-rule:evenodd;"
points="10762,2859
10762,2218
11402,2218
11402,2859
10762,2859
" /> 
</g>
<g style="fill:#840000; fill-opacity:1.0; 
stroke:#840000; stroke-width:680; stroke-opacity:1; 
stroke-linecap:round; stroke-linejoin:round;">
</g>
<g style="fill:#840000; fill-opacity:0.0; 
stroke:#840000; stroke-width:680; stroke-opacity:1; 
stroke-linecap:round; stroke-linejoin:round;">
<path d="M11082 1539
L11082 1539
" />
<path d="M12082 2539
L12082 2539
" />
<path d="M12082 1539
L12082 1539
" />
</g>
<g style="fill:#840000; fill-opacity:0.0; 
stroke:#840000; stroke-width:39.3701; stroke-opacity:1; 
stroke-linecap:round; stroke-linejoin:round;">
</g>
<g style="fill:#840000; fill-opacity:1.0; 
stroke:#840000; stroke-width:39.3701; stroke-opacity:1; 
stroke-linecap:round; stroke-linejoin:round;">
<polyline style="fill-rule:evenodd;"
points="12762,2859
12762,2218
13402,2218
13402,2859
12762,2859
" /> 
</g>
<g style="fill:#840000; fill-opacity:1.0; 
stroke:#840000; stroke-width:680; stroke-opacity:1; 
stroke-linecap:round; stroke-linejoin:round;">
</g>
<g style="fill:#840000; fill-opacity:0.0; 
stroke:#840000; stroke-width:680; stroke-opacity:1; 
stroke-linecap:round; stroke-linejoin:round;">
<path d="M13082 1539
L13082 1539
" />
<path d="M14082 2539
L14082 2539
" />
<path d="M14082 1539
L14082 1539
" />
</g>
<g style="fill:#840000; fill-opacity:0.0; 
stroke:#840000; stroke-width:39.3701; stroke-opacity:1; 
stroke-linecap:round; stroke-linejoin:round;">
</g>
<g style="fill:#840000; fill-opacity:1.0; 
stroke:#840000; stroke-width:39.3701; stroke-opacity:1; 
stroke-linecap:round; stroke-linejoin:round;">
<polyline style="fill-rule:evenodd;"
points="5287,4744
4877,4744
4877,4533
5287,4533
5287,4744
" /> 
<polyline style="fill-rule:evenodd;"
points="5287,4144
4877,4144
4877,3933
5287,3933
5287,4144
" /> 
<polyline style="fill-rule:evenodd;"
points="8787,4744
8377,4744
8377,4533
8787,4533
8787,4744
" /> 
<polyline style="fill-rule:evenodd;"
points="8787,4144
8377,4144
8377,3933
8787,3933
8787,4144
" /> 
<polyline style="fill-rule:evenodd;"
points="12187,4744
11777,4744
11777,4533
12187,4533
12187,4744
" /> 
<polyline style="fill-rule:evenodd;"
points="12187,4144
11777,4144
11777,3933
12187,3933
12187,4144
" /> 
<polyline style="fill-rule:evenodd;"
points="15687,4744
15277,4744
15277,4533
15687,4533
15687,4744
" /> 
<polyline style="fill-rule:evenodd;"
points="15687,4144
15277,4144
15277,3933
15687,3933
15687,4144
" /> 
<polyline style="fill-rule:evenodd;"
points="15282,6905
15282,6354
15676,6354
15676,6905
15282,6905
" /> 
<polyline style="fill-rule:evenodd;"
points="15873,6905
15873,6354
16266,6354
16266,6905
15873,6905
" /> 
<polyline style="fill-rule:evenodd;"
points="15873,5724
15873,5173
16266,5173
16266,5724
15873,5724
" /> 
<polyline style="fill-rule:evenodd;"
points="15282,5724
15282,5173
15676,5173
15676,5724
15282,5724
" /> 
<polyline style="fill-rule:evenodd;"
points="11818,6905
11818,6354
12212,6354
12212,6905
11818,6905
" /> 
<polyline style="fill-rule:evenodd;"
points="12409,6905
12409,6354
12802,6354
12802,6905
12409,6905
" /> 
<polyline style="fill-rule:evenodd;"
points="12409,5724
12409,5173
12802,5173
12802,5724
12409,5724
" /> 
<polyline style="fill-rule:evenodd;"
points="11818,5724
11818,5173
12212,5173
12212,5724
11818,5724
" /> 
<polyline style="fill-rule:evenodd;"
points="8354,6905
8354,6354
8748,6354
8748,6905
8354,6905
" /> 
<polyline style="fill-rule:evenodd;"
points="8945,6905
8945,6354
9338,6354
9338,6905
8945,6905
" /> 
<polyline style="fill-rule:evenodd;"
points="8945,5724
8945,5173
9338,5173
9338,5724
8945,5724
" /> 
<polyline style="fill-rule:evenodd;"
points="8354,5724
8354,5173
8748,5173
8748,5724
8354,5724
" /> 
<polyline style="fill-rule:evenodd;"
points="4890,6905
4890,6354
5284,6354
5284,6905
4890,6905
" /> 
<polyline style="fill-rule:evenodd;"
points="5481,6905
5481,6354
5874,6354
5874,6905
5481,6905
" /> 
<polyline style="fill-rule:evenodd;"
points="5481,5724
5481,5173
5874,5173
5874,5724
5481,5724
" /> 
<polyline style="fill-rule:evenodd;"
points="4890,5724
4890,5173
5284,5173
5284,5724
4890,5724
" /> 
<circle cx="6614.28" cy="7039.17" r="310.315" /> 
<circle cx="7614.28" cy="7039.17" r="310.315" /> 
<circle cx="10081.3" cy="7039.17" r="310.315" /> 
<circle cx="11081.3" cy="7039.17" r="310.315" /> 
<circle cx="13542.3" cy="7039.17" r="310.315" /> 
<circle cx="14542.3" cy="7039.17" r="310.315" /> 
</g>
<g style="fill:#008484; fill-opacity:1.0; 
stroke:#008484; stroke-width:59.0551; stroke-opacity:1; 
stroke-linecap:round; stroke-linejoin:round;">
</g>
<g style="fill:#008484; fill-opacity:0.0; 
stroke:#008484; stroke-width:59.0551; stroke-opacity:1; 
stroke-linecap:round; stroke-linejoin:round;">
<path d="M6582 2039
L6582 3039
" />
<path d="M6582 3039
L7582 3039
" />
<path d="M7582 3039
L7582 2039
" />
<path d="M7582 2039
L6582 2039
" />
<path d="M6582 2039
L6582 1039
" />
<path d="M6582 1039
L8582 1039
" />
<path d="M8582 1039
L8582 3039
" />
<path d="M8582 3039
L7582 3039
" />
<path d="M8582 2039
L8582 3039
" />
<path d="M8582 3039
L9582 3039
" />
<path d="M9582 3039
L9582 2039
" />
<path d="M9582 2039
L8582 2039
" />
<path d="M8582 2039
L8582 1039
" />
<path d="M8582 1039
L10582 1039
" />
<path d="M10582 1039
L10582 3039
" />
<path d="M10582 3039
L9582 3039
" />
<path d="M10582 2039
L10582 3039
" />
<path d="M10582 3039
L11582 3039
" />
<path d="M11582 3039
L11582 2039
" />
<path d="M11582 2039
L10582 2039
" />
<path d="M10582 2039
L10582 1039
" />
<path d="M10582 1039
L12582 1039
" />
<path d="M12582 1039
L12582 3039
" />
<path d="M12582 3039
L11582 3039
" />
<path d="M12582 2039
L12582 3039
" />
<path d="M12582 3039
L13582 3039
" />
<path d="M13582 3039
L13582 2039
" />
<path d="M13582 2039
L12582 2039
" />
<path d="M12582 2039
L12582 1039
" />
<path d="M12582 1039
L14582 1039
" />
<path d="M14582 1039
L14582 3039
" />
<path d="M14582 3039
L13582 3039
" />
<path d="M4807 4536
L4807 4814
" />
<path d="M4807 4814
L5357 4814
" />
<path d="M5357 4814
L5357 4536
" />
<path d="M4807 3864
L4807 4142
" />
<path d="M4807 3864
L5357 3864
" />
<path d="M5357 3864
L5357 4142
" />
<path d="M8307 4536
L8307 4814
" />
<path d="M8307 4814
L8857 4814
" />
<path d="M8857 4814
L8857 4536
" />
<path d="M8307 3864
L8307 4142
" />
<path d="M8307 3864
L8857 3864
" />
<path d="M8857 3864
L8857 4142
" />
<path d="M11707 4536
L11707 4814
" />
<path d="M11707 4814
L12257 4814
" />
<path d="M12257 4814
L12257 4536
" />
<path d="M11707 3864
L11707 4142
" />
<path d="M11707 3864
L12257 3864
" />
<path d="M12257 3864
L12257 4142
" />
<path d="M15207 4536
L15207 4814
" />
<path d="M15207 4814
L15757 4814
" />
<path d="M15757 4814
L15757 4536
" />
<path d="M15207 3864
L15207 4142
" />
<path d="M15207 3864
L15757 3864
" />
<path d="M15757 3864
L15757 4142
" />
<path d="M16562 4858
L16562 7220
" />
<path d="M16562 7220
L15302 7220
" />
<path d="M15302 7220
L14987 6905
" />
<path d="M14987 6905
L14987 4858
" />
<path d="M16562 4858
L14987 4858
" />
<path d="M15341 5763
L15341 6275
" />
<path d="M15813 5409
L15735 5409
" />
<path d="M16207 6275
L16207 5802
" />
<path d="M15813 6669
L15735 6669
" />
<path d="M13098 4858
L13098 7220
" />
<path d="M13098 7220
L11838 7220
" />
<path d="M11838 7220
L11523 6905
" />
<path d="M11523 6905
L11523 4858
" />
<path d="M13098 4858
L11523 4858
" />
<path d="M11877 5763
L11877 6275
" />
<path d="M12349 5409
L12271 5409
" />
<path d="M12743 6275
L12743 5802
" />
<path d="M12349 6669
L12271 6669
" />
<path d="M9634 4858
L9634 7220
" />
<path d="M9634 7220
L8374 7220
" />
<path d="M8374 7220
L8059 6905
" />
<path d="M8059 6905
L8059 4858
" />
<path d="M9634 4858
L8059 4858
" />
<path d="M8413 5763
L8413 6275
" />
<path d="M8885 5409
L8807 5409
" />
<path d="M9279 6275
L9279 5802
" />
<path d="M8885 6669
L8807 6669
" />
<path d="M6170 4858
L6170 7220
" />
<path d="M6170 7220
L4910 7220
" />
<path d="M4910 7220
L4595 6905
" />
<path d="M4595 6905
L4595 4858
" />
<path d="M6170 4858
L4595 4858
" />
<path d="M4949 5763
L4949 6275
" />
<path d="M5421 5409
L5343 5409
" />
<path d="M5815 6275
L5815 5802
" />
<path d="M5421 6669
L5343 6669
" />
<path d="M7292 717
L7292 323
L7442 323
L7479 342
L7498 361
L7517 398
L7517 454
L7498 492
L7479 511
L7442 529
L7292 529
" />
<path d="M7891 717
L7666 717
" />
<path d="M7779 717
L7779 323
L7741 379
L7704 417
L7666 436
" />
<path d="M9292 717
L9292 323
L9442 323
L9479 342
L9498 361
L9517 398
L9517 454
L9498 492
L9479 511
L9442 529
L9292 529
" />
<path d="M9666 361
L9685 342
L9723 323
L9816 323
L9854 342
L9873 361
L9891 398
L9891 436
L9873 492
L9648 717
L9891 717
" />
<path d="M11292 717
L11292 323
L11442 323
L11479 342
L11498 361
L11517 398
L11517 454
L11498 492
L11479 511
L11442 529
L11292 529
" />
<path d="M11648 323
L11891 323
L11760 473
L11816 473
L11854 492
L11873 511
L11891 548
L11891 642
L11873 679
L11854 698
L11816 717
L11704 717
L11666 698
L11648 679
" />
<path d="M13292 717
L13292 323
L13442 323
L13479 342
L13498 361
L13517 398
L13517 454
L13498 492
L13479 511
L13442 529
L13292 529
" />
<path d="M13854 454
L13854 717
" />
<path d="M13760 304
L13666 586
L13910 586
" />
<path d="M4992 4492
L4860 4304
" />
<path d="M4767 4492
L4767 4098
L4917 4098
L4954 4117
L4973 4136
L4992 4173
L4992 4229
L4973 4267
L4954 4286
L4917 4304
L4767 4304
" />
<path d="M5366 4492
L5141 4492
" />
<path d="M5254 4492
L5254 4098
L5216 4154
L5179 4192
L5141 4211
" />
<path d="M5204 5186
L5073 4998
" />
<path d="M4979 5186
L4979 4792
L5129 4792
L5166 4811
L5185 4830
L5204 4867
L5204 4923
L5185 4961
L5166 4980
L5129 4998
L4979 4998
" />
<path d="M8492 4492
L8360 4304
" />
<path d="M8267 4492
L8267 4098
L8417 4098
L8454 4117
L8473 4136
L8492 4173
L8492 4229
L8473 4267
L8454 4286
L8417 4304
L8267 4304
" />
<path d="M8623 4098
L8866 4098
L8735 4248
L8791 4248
L8829 4267
L8848 4286
L8866 4323
L8866 4417
L8848 4454
L8829 4473
L8791 4492
L8679 4492
L8641 4473
L8623 4454
" />
<path d="M8704 5186
L8573 4998
" />
<path d="M8479 5186
L8479 4792
L8629 4792
L8666 4811
L8685 4830
L8704 4867
L8704 4923
L8685 4961
L8666 4980
L8629 4998
L8479 4998
" />
<path d="M11892 4492
L11760 4304
" />
<path d="M11667 4492
L11667 4098
L11817 4098
L11854 4117
L11873 4136
L11892 4173
L11892 4229
L11873 4267
L11854 4286
L11817 4304
L11667 4304
" />
<path d="M12248 4098
L12060 4098
L12041 4286
L12060 4267
L12098 4248
L12191 4248
L12229 4267
L12248 4286
L12266 4323
L12266 4417
L12248 4454
L12229 4473
L12191 4492
L12098 4492
L12060 4473
L12041 4454
" />
<path d="M12104 5186
L11973 4998
" />
<path d="M11879 5186
L11879 4792
L12029 4792
L12066 4811
L12085 4830
L12104 4867
L12104 4923
L12085 4961
L12066 4980
L12029 4998
L11879 4998
" />
<path d="M15392 4492
L15260 4304
" />
<path d="M15167 4492
L15167 4098
L15317 4098
L15354 4117
L15373 4136
L15392 4173
L15392 4229
L15373 4267
L15354 4286
L15317 4304
L15167 4304
" />
<path d="M15523 4098
L15785 4098
L15616 4492
" />
<path d="M15604 5186
L15473 4998
" />
<path d="M15379 5186
L15379 4792
L15529 4792
L15566 4811
L15585 4830
L15604 4867
L15604 4923
L15585 4961
L15566 4980
L15529 4998
L15379 4998
" />
<path d="M17330 6329
L16936 6329
L16936 6236
L16955 6179
L16993 6142
L17030 6123
L17105 6104
L17161 6104
L17236 6123
L17274 6142
L17311 6179
L17330 6236
L17330 6329
" />
<path d="M16936 5973
L16936 5711
L17330 5879
" />
<path d="M14496 9554
L14496 9741
L14102 9741
" />
<path d="M14289 9423
L14289 9291
" />
<path d="M14496 9235
L14496 9423
L14102 9423
L14102 9235
" />
<path d="M14496 9066
L14102 9066
L14102 8973
L14121 8916
L14158 8879
L14196 8860
L14271 8841
L14327 8841
L14402 8860
L14439 8879
L14477 8916
L14496 8973
L14496 9066
" />
<path d="M14533 8766
L14533 8466
" />
<path d="M14496 8148
L14308 8279
" />
<path d="M14496 8373
L14102 8373
L14102 8223
L14121 8185
L14139 8167
L14177 8148
L14233 8148
L14271 8167
L14289 8185
L14308 8223
L14308 8373
" />
<path d="M14121 7773
L14102 7810
L14102 7867
L14121 7923
L14158 7960
L14196 7979
L14271 7998
L14327 7998
L14402 7979
L14439 7960
L14477 7923
L14496 7867
L14496 7829
L14477 7773
L14458 7754
L14327 7754
L14327 7829
" />
<path d="M14289 7454
L14308 7398
L14327 7379
L14364 7360
L14421 7360
L14458 7379
L14477 7398
L14496 7435
L14496 7585
L14102 7585
L14102 7454
L14121 7417
L14139 7398
L14177 7379
L14214 7379
L14252 7398
L14271 7417
L14289 7454
L14289 7585
" />
<path d="M14533 7285
L14533 6985
" />
<path d="M14458 6667
L14477 6685
L14496 6742
L14496 6779
L14477 6835
L14439 6873
L14402 6892
L14327 6910
L14271 6910
L14196 6892
L14158 6873
L14121 6835
L14102 6779
L14102 6742
L14121 6685
L14139 6667
" />
<path d="M14102 6423
L14102 6348
L14121 6311
L14158 6273
L14233 6254
L14364 6254
L14439 6273
L14477 6311
L14496 6348
L14496 6423
L14477 6460
L14439 6498
L14364 6517
L14233 6517
L14158 6498
L14121 6460
L14102 6423
" />
<path d="M14496 6086
L14102 6086
L14383 5954
L14102 5823
L14496 5823
" />
<path d="M14496 5636
L14102 5636
L14383 5504
L14102 5373
L14496 5373
" />
<path d="M14102 5111
L14102 5036
L14121 4998
L14158 4961
L14233 4942
L14364 4942
L14439 4961
L14477 4998
L14496 5036
L14496 5111
L14477 5148
L14439 5186
L14364 5204
L14233 5204
L14158 5186
L14121 5148
L14102 5111
" />
<path d="M14496 4773
L14102 4773
L14496 4548
L14102 4548
" />
<path d="M14533 4454
L14533 4155
" />
<path d="M14383 4080
L14383 3892
" />
<path d="M14496 4117
L14102 3986
L14496 3855
" />
<path d="M14496 3723
L14102 3723
L14496 3498
L14102 3498
" />
<path d="M14102 3236
L14102 3161
L14121 3123
L14158 3086
L14233 3067
L14364 3067
L14439 3086
L14477 3123
L14496 3161
L14496 3236
L14477 3273
L14439 3311
L14364 3330
L14233 3330
L14158 3311
L14121 3273
L14102 3236
" />
<path d="M14496 2898
L14102 2898
L14102 2805
L14121 2748
L14158 2711
L14196 2692
L14271 2673
L14327 2673
L14402 2692
L14439 2711
L14477 2748
L14496 2805
L14496 2898
" />
<path d="M14289 2505
L14289 2374
" />
<path d="M14496 2317
L14496 2505
L14102 2505
L14102 2317
" />
<path d="M13866 6329
L13472 6329
L13472 6236
L13491 6179
L13529 6142
L13566 6123
L13641 6104
L13697 6104
L13772 6123
L13810 6142
L13847 6179
L13866 6236
L13866 6329
" />
<path d="M13472 5748
L13472 5936
L13660 5954
L13641 5936
L13622 5898
L13622 5804
L13641 5767
L13660 5748
L13697 5729
L13791 5729
L13829 5748
L13847 5767
L13866 5804
L13866 5898
L13847 5936
L13829 5954
" />
<path d="M11032 9554
L11032 9741
L10638 9741
" />
<path d="M10825 9423
L10825 9291
" />
<path d="M11032 9235
L11032 9423
L10638 9423
L10638 9235
" />
<path d="M11032 9066
L10638 9066
L10638 8973
L10657 8916
L10694 8879
L10732 8860
L10807 8841
L10863 8841
L10938 8860
L10975 8879
L11013 8916
L11032 8973
L11032 9066
" />
<path d="M11069 8766
L11069 8466
" />
<path d="M11032 8148
L10844 8279
" />
<path d="M11032 8373
L10638 8373
L10638 8223
L10657 8185
L10675 8167
L10713 8148
L10769 8148
L10807 8167
L10825 8185
L10844 8223
L10844 8373
" />
<path d="M10657 7773
L10638 7810
L10638 7867
L10657 7923
L10694 7960
L10732 7979
L10807 7998
L10863 7998
L10938 7979
L10975 7960
L11013 7923
L11032 7867
L11032 7829
L11013 7773
L10994 7754
L10863 7754
L10863 7829
" />
<path d="M10825 7454
L10844 7398
L10863 7379
L10900 7360
L10957 7360
L10994 7379
L11013 7398
L11032 7435
L11032 7585
L10638 7585
L10638 7454
L10657 7417
L10675 7398
L10713 7379
L10750 7379
L10788 7398
L10807 7417
L10825 7454
L10825 7585
" />
<path d="M11069 7285
L11069 6985
" />
<path d="M10994 6667
L11013 6685
L11032 6742
L11032 6779
L11013 6835
L10975 6873
L10938 6892
L10863 6910
L10807 6910
L10732 6892
L10694 6873
L10657 6835
L10638 6779
L10638 6742
L10657 6685
L10675 6667
" />
<path d="M10638 6423
L10638 6348
L10657 6311
L10694 6273
L10769 6254
L10900 6254
L10975 6273
L11013 6311
L11032 6348
L11032 6423
L11013 6460
L10975 6498
L10900 6517
L10769 6517
L10694 6498
L10657 6460
L10638 6423
" />
<path d="M11032 6086
L10638 6086
L10919 5954
L10638 5823
L11032 5823
" />
<path d="M11032 5636
L10638 5636
L10919 5504
L10638 5373
L11032 5373
" />
<path d="M10638 5111
L10638 5036
L10657 4998
L10694 4961
L10769 4942
L10900 4942
L10975 4961
L11013 4998
L11032 5036
L11032 5111
L11013 5148
L10975 5186
L10900 5204
L10769 5204
L10694 5186
L10657 5148
L10638 5111
" />
<path d="M11032 4773
L10638 4773
L11032 4548
L10638 4548
" />
<path d="M11069 4454
L11069 4155
" />
<path d="M10919 4080
L10919 3892
" />
<path d="M11032 4117
L10638 3986
L11032 3855
" />
<path d="M11032 3723
L10638 3723
L11032 3498
L10638 3498
" />
<path d="M10638 3236
L10638 3161
L10657 3123
L10694 3086
L10769 3067
L10900 3067
L10975 3086
L11013 3123
L11032 3161
L11032 3236
L11013 3273
L10975 3311
L10900 3330
L10769 3330
L10694 3311
L10657 3273
L10638 3236
" />
<path d="M11032 2898
L10638 2898
L10638 2805
L10657 2748
L10694 2711
L10732 2692
L10807 2673
L10863 2673
L10938 2692
L10975 2711
L11013 2748
L11032 2805
L11032 2898
" />
<path d="M10825 2505
L10825 2374
" />
<path d="M11032 2317
L11032 2505
L10638 2505
L10638 2317
" />
<path d="M10402 6329
L10008 6329
L10008 6236
L10027 6179
L10065 6142
L10102 6123
L10177 6104
L10233 6104
L10308 6123
L10346 6142
L10383 6179
L10402 6236
L10402 6329
" />
<path d="M10008 5973
L10008 5729
L10158 5861
L10158 5804
L10177 5767
L10196 5748
L10233 5729
L10327 5729
L10365 5748
L10383 5767
L10402 5804
L10402 5917
L10383 5954
L10365 5973
" />
<path d="M7568 9554
L7568 9741
L7174 9741
" />
<path d="M7361 9423
L7361 9291
" />
<path d="M7568 9235
L7568 9423
L7174 9423
L7174 9235
" />
<path d="M7568 9066
L7174 9066
L7174 8973
L7193 8916
L7230 8879
L7268 8860
L7343 8841
L7399 8841
L7474 8860
L7511 8879
L7549 8916
L7568 8973
L7568 9066
" />
<path d="M7605 8766
L7605 8466
" />
<path d="M7568 8148
L7380 8279
" />
<path d="M7568 8373
L7174 8373
L7174 8223
L7193 8185
L7211 8167
L7249 8148
L7305 8148
L7343 8167
L7361 8185
L7380 8223
L7380 8373
" />
<path d="M7193 7773
L7174 7810
L7174 7867
L7193 7923
L7230 7960
L7268 7979
L7343 7998
L7399 7998
L7474 7979
L7511 7960
L7549 7923
L7568 7867
L7568 7829
L7549 7773
L7530 7754
L7399 7754
L7399 7829
" />
<path d="M7361 7454
L7380 7398
L7399 7379
L7436 7360
L7493 7360
L7530 7379
L7549 7398
L7568 7435
L7568 7585
L7174 7585
L7174 7454
L7193 7417
L7211 7398
L7249 7379
L7286 7379
L7324 7398
L7343 7417
L7361 7454
L7361 7585
" />
<path d="M7605 7285
L7605 6985
" />
<path d="M7530 6667
L7549 6685
L7568 6742
L7568 6779
L7549 6835
L7511 6873
L7474 6892
L7399 6910
L7343 6910
L7268 6892
L7230 6873
L7193 6835
L7174 6779
L7174 6742
L7193 6685
L7211 6667
" />
<path d="M7174 6423
L7174 6348
L7193 6311
L7230 6273
L7305 6254
L7436 6254
L7511 6273
L7549 6311
L7568 6348
L7568 6423
L7549 6460
L7511 6498
L7436 6517
L7305 6517
L7230 6498
L7193 6460
L7174 6423
" />
<path d="M7568 6086
L7174 6086
L7455 5954
L7174 5823
L7568 5823
" />
<path d="M7568 5636
L7174 5636
L7455 5504
L7174 5373
L7568 5373
" />
<path d="M7174 5111
L7174 5036
L7193 4998
L7230 4961
L7305 4942
L7436 4942
L7511 4961
L7549 4998
L7568 5036
L7568 5111
L7549 5148
L7511 5186
L7436 5204
L7305 5204
L7230 5186
L7193 5148
L7174 5111
" />
<path d="M7568 4773
L7174 4773
L7568 4548
L7174 4548
" />
<path d="M7605 4454
L7605 4155
" />
<path d="M7455 4080
L7455 3892
" />
<path d="M7568 4117
L7174 3986
L7568 3855
" />
<path d="M7568 3723
L7174 3723
L7568 3498
L7174 3498
" />
<path d="M7174 3236
L7174 3161
L7193 3123
L7230 3086
L7305 3067
L7436 3067
L7511 3086
L7549 3123
L7568 3161
L7568 3236
L7549 3273
L7511 3311
L7436 3330
L7305 3330
L7230 3311
L7193 3273
L7174 3236
" />
<path d="M7568 2898
L7174 2898
L7174 2805
L7193 2748
L7230 2711
L7268 2692
L7343 2673
L7399 2673
L7474 2692
L7511 2711
L7549 2748
L7568 2805
L7568 2898
" />
<path d="M7361 2505
L7361 2374
" />
<path d="M7568 2317
L7568 2505
L7174 2505
L7174 2317
" />
<path d="M6938 6329
L6544 6329
L6544 6236
L6563 6179
L6601 6142
L6638 6123
L6713 6104
L6769 6104
L6844 6123
L6882 6142
L6919 6179
L6938 6236
L6938 6329
" />
<path d="M6938 5729
L6938 5954
" />
<path d="M6938 5842
L6544 5842
L6601 5879
L6638 5917
L6657 5954
" />
<path d="M4104 9554
L4104 9741
L3710 9741
" />
<path d="M3897 9423
L3897 9291
" />
<path d="M4104 9235
L4104 9423
L3710 9423
L3710 9235
" />
<path d="M4104 9066
L3710 9066
L3710 8973
L3729 8916
L3766 8879
L3804 8860
L3879 8841
L3935 8841
L4010 8860
L4047 8879
L4085 8916
L4104 8973
L4104 9066
" />
<path d="M4141 8766
L4141 8466
" />
<path d="M4104 8148
L3916 8279
" />
<path d="M4104 8373
L3710 8373
L3710 8223
L3729 8185
L3747 8167
L3785 8148
L3841 8148
L3879 8167
L3897 8185
L3916 8223
L3916 8373
" />
<path d="M3729 7773
L3710 7810
L3710 7867
L3729 7923
L3766 7960
L3804 7979
L3879 7998
L3935 7998
L4010 7979
L4047 7960
L4085 7923
L4104 7867
L4104 7829
L4085 7773
L4066 7754
L3935 7754
L3935 7829
" />
<path d="M3897 7454
L3916 7398
L3935 7379
L3972 7360
L4029 7360
L4066 7379
L4085 7398
L4104 7435
L4104 7585
L3710 7585
L3710 7454
L3729 7417
L3747 7398
L3785 7379
L3822 7379
L3860 7398
L3879 7417
L3897 7454
L3897 7585
" />
<path d="M4141 7285
L4141 6985
" />
<path d="M4066 6667
L4085 6685
L4104 6742
L4104 6779
L4085 6835
L4047 6873
L4010 6892
L3935 6910
L3879 6910
L3804 6892
L3766 6873
L3729 6835
L3710 6779
L3710 6742
L3729 6685
L3747 6667
" />
<path d="M3710 6423
L3710 6348
L3729 6311
L3766 6273
L3841 6254
L3972 6254
L4047 6273
L4085 6311
L4104 6348
L4104 6423
L4085 6460
L4047 6498
L3972 6517
L3841 6517
L3766 6498
L3729 6460
L3710 6423
" />
<path d="M4104 6086
L3710 6086
L3991 5954
L3710 5823
L4104 5823
" />
<path d="M4104 5636
L3710 5636
L3991 5504
L3710 5373
L4104 5373
" />
<path d="M3710 5111
L3710 5036
L3729 4998
L3766 4961
L3841 4942
L3972 4942
L4047 4961
L4085 4998
L4104 5036
L4104 5111
L4085 5148
L4047 5186
L3972 5204
L3841 5204
L3766 5186
L3729 5148
L3710 5111
" />
<path d="M4104 4773
L3710 4773
L4104 4548
L3710 4548
" />
<path d="M4141 4454
L4141 4155
" />
<path d="M3991 4080
L3991 3892
" />
<path d="M4104 4117
L3710 3986
L4104 3855
" />
<path d="M4104 3723
L3710 3723
L4104 3498
L3710 3498
" />
<path d="M3710 3236
L3710 3161
L3729 3123
L3766 3086
L3841 3067
L3972 3067
L4047 3086
L4085 3123
L4104 3161
L4104 3236
L4085 3273
L4047 3311
L3972 3330
L3841 3330
L3766 3311
L3729 3273
L3710 3236
" />
<path d="M4104 2898
L3710 2898
L3710 2805
L3729 2748
L3766 2711
L3804 2692
L3879 2673
L3935 2673
L4010 2692
L4047 2711
L4085 2748
L4104 2805
L4104 2898
" />
<path d="M3897 2505
L3897 2374
" />
<path d="M4104 2317
L4104 2505
L3710 2505
L3710 2317
" />
<path d="M13028 642
L13028 248
L13159 529
L13290 248
L13290 642
" />
<path d="M13534 642
L13496 623
L13478 604
L13459 567
L13459 454
L13478 417
L13496 398
L13534 379
L13590 379
L13628 398
L13646 417
L13665 454
L13665 567
L13646 604
L13628 623
L13590 642
L13534 642
" />
<path d="M14002 379
L14002 642
" />
<path d="M13834 379
L13834 586
L13852 623
L13890 642
L13946 642
L13984 623
L14002 604
" />
<path d="M14190 379
L14190 642
" />
<path d="M14190 417
L14209 398
L14246 379
L14302 379
L14340 398
L14359 436
L14359 642
" />
<path d="M14490 379
L14640 379
" />
<path d="M14546 248
L14546 586
L14565 623
L14602 642
L14640 642
" />
<path d="M14771 642
L14771 379
" />
<path d="M14771 248
L14752 267
L14771 286
L14790 267
L14771 248
L14771 286
" />
<path d="M14959 379
L14959 642
" />
<path d="M14959 417
L14977 398
L15015 379
L15071 379
L15109 398
L15127 436
L15127 642
" />
<path d="M15484 379
L15484 698
L15465 736
L15446 754
L15409 773
L15352 773
L15315 754
" />
<path d="M15484 623
L15446 642
L15371 642
L15334 623
L15315 604
L15296 567
L15296 454
L15315 417
L15334 398
L15371 379
L15446 379
L15484 398
" />
<path d="M15671 642
L15671 248
" />
<path d="M15671 436
L15896 436
" />
<path d="M15896 642
L15896 248
" />
<path d="M16140 642
L16102 623
L16083 604
L16065 567
L16065 454
L16083 417
L16102 398
L16140 379
L16196 379
L16233 398
L16252 417
L16271 454
L16271 567
L16252 604
L16233 623
L16196 642
L16140 642
" />
<path d="M16496 642
L16458 623
L16440 586
L16440 248
" />
<path d="M16796 623
L16758 642
L16683 642
L16646 623
L16627 586
L16627 436
L16646 398
L16683 379
L16758 379
L16796 398
L16815 436
L16815 473
L16627 511
" />
<path d="M16890 679
L17190 679
" />
<path d="M17246 248
L17490 248
L17358 398
L17415 398
L17452 417
L17471 436
L17490 473
L17490 567
L17471 604
L17452 623
L17415 642
L17302 642
L17265 623
L17246 604
" />
<path d="M17658 642
L17658 379
" />
<path d="M17658 417
L17677 398
L17715 379
L17771 379
L17808 398
L17827 436
L17827 642
" />
<path d="M17827 436
L17846 398
L17883 379
L17939 379
L17977 398
L17996 436
L17996 642
" />
<path d="M18183 642
L18183 379
" />
<path d="M18183 417
L18202 398
L18239 379
L18296 379
L18333 398
L18352 436
L18352 642
" />
<path d="M18352 436
L18371 398
L18408 379
L18464 379
L18502 398
L18521 436
L18521 642
" />
<path d="M2636 642
L2636 248
L2767 529
L2898 248
L2898 642
" />
<path d="M3142 642
L3104 623
L3086 604
L3067 567
L3067 454
L3086 417
L3104 398
L3142 379
L3198 379
L3236 398
L3254 417
L3273 454
L3273 567
L3254 604
L3236 623
L3198 642
L3142 642
" />
<path d="M3610 379
L3610 642
" />
<path d="M3442 379
L3442 586
L3460 623
L3498 642
L3554 642
L3592 623
L3610 604
" />
<path d="M3798 379
L3798 642
" />
<path d="M3798 417
L3817 398
L3854 379
L3910 379
L3948 398
L3967 436
L3967 642
" />
<path d="M4098 379
L4248 379
" />
<path d="M4154 248
L4154 586
L4173 623
L4210 642
L4248 642
" />
<path d="M4379 642
L4379 379
" />
<path d="M4379 248
L4360 267
L4379 286
L4398 267
L4379 248
L4379 286
" />
<path d="M4567 379
L4567 642
" />
<path d="M4567 417
L4585 398
L4623 379
L4679 379
L4717 398
L4735 436
L4735 642
" />
<path d="M5092 379
L5092 698
L5073 736
L5054 754
L5017 773
L4960 773
L4923 754
" />
<path d="M5092 623
L5054 642
L4979 642
L4942 623
L4923 604
L4904 567
L4904 454
L4923 417
L4942 398
L4979 379
L5054 379
L5092 398
" />
<path d="M5279 642
L5279 248
" />
<path d="M5279 436
L5504 436
" />
<path d="M5504 642
L5504 248
" />
<path d="M5748 642
L5710 623
L5691 604
L5673 567
L5673 454
L5691 417
L5710 398
L5748 379
L5804 379
L5841 398
L5860 417
L5879 454
L5879 567
L5860 604
L5841 623
L5804 642
L5748 642
" />
<path d="M6104 642
L6066 623
L6048 586
L6048 248
" />
<path d="M6404 623
L6366 642
L6291 642
L6254 623
L6235 586
L6235 436
L6254 398
L6291 379
L6366 379
L6404 398
L6423 436
L6423 473
L6235 511
" />
<path d="M6498 679
L6798 679
" />
<path d="M6854 248
L7098 248
L6966 398
L7023 398
L7060 417
L7079 436
L7098 473
L7098 567
L7079 604
L7060 623
L7023 642
L6910 642
L6873 623
L6854 604
" />
<path d="M7266 642
L7266 379
" />
<path d="M7266 417
L7285 398
L7323 379
L7379 379
L7416 398
L7435 436
L7435 642
" />
<path d="M7435 436
L7454 398
L7491 379
L7547 379
L7585 398
L7604 436
L7604 642
" />
<path d="M7791 642
L7791 379
" />
<path d="M7791 417
L7810 398
L7847 379
L7904 379
L7941 398
L7960 436
L7960 642
" />
<path d="M7960 436
L7979 398
L8016 379
L8072 379
L8110 398
L8129 436
L8129 642
" />
<path d="M11296 7642
L11296 7248
L11427 7529
L11558 7248
L11558 7642
" />
<path d="M11802 7642
L11764 7623
L11746 7604
L11727 7567
L11727 7454
L11746 7417
L11764 7398
L11802 7379
L11858 7379
L11896 7398
L11914 7417
L11933 7454
L11933 7567
L11914 7604
L11896 7623
L11858 7642
L11802 7642
" />
<path d="M12270 7379
L12270 7642
" />
<path d="M12102 7379
L12102 7586
L12120 7623
L12158 7642
L12214 7642
L12252 7623
L12270 7604
" />
<path d="M12458 7379
L12458 7642
" />
<path d="M12458 7417
L12477 7398
L12514 7379
L12570 7379
L12608 7398
L12627 7436
L12627 7642
" />
<path d="M12758 7379
L12908 7379
" />
<path d="M12814 7248
L12814 7586
L12833 7623
L12870 7642
L12908 7642
" />
<path d="M13039 7642
L13039 7379
" />
<path d="M13039 7248
L13020 7267
L13039 7286
L13058 7267
L13039 7248
L13039 7286
" />
<path d="M13227 7379
L13227 7642
" />
<path d="M13227 7417
L13245 7398
L13283 7379
L13339 7379
L13377 7398
L13395 7436
L13395 7642
" />
<path d="M13752 7379
L13752 7698
L13733 7736
L13714 7754
L13677 7773
L13620 7773
L13583 7754
" />
<path d="M13752 7623
L13714 7642
L13639 7642
L13602 7623
L13583 7604
L13564 7567
L13564 7454
L13583 7417
L13602 7398
L13639 7379
L13714 7379
L13752 7398
" />
<path d="M13939 7642
L13939 7248
" />
<path d="M13939 7436
L14164 7436
" />
<path d="M14164 7642
L14164 7248
" />
<path d="M14408 7642
L14370 7623
L14351 7604
L14333 7567
L14333 7454
L14351 7417
L14370 7398
L14408 7379
L14464 7379
L14501 7398
L14520 7417
L14539 7454
L14539 7567
L14520 7604
L14501 7623
L14464 7642
L14408 7642
" />
<path d="M14764 7642
L14726 7623
L14708 7586
L14708 7248
" />
<path d="M15064 7623
L15026 7642
L14951 7642
L14914 7623
L14895 7586
L14895 7436
L14914 7398
L14951 7379
L15026 7379
L15064 7398
L15083 7436
L15083 7473
L14895 7511
" />
<path d="M15158 7679
L15458 7679
" />
<path d="M15514 7248
L15758 7248
L15626 7398
L15683 7398
L15720 7417
L15739 7436
L15758 7473
L15758 7567
L15739 7604
L15720 7623
L15683 7642
L15570 7642
L15533 7623
L15514 7604
" />
<path d="M15926 7642
L15926 7379
" />
<path d="M15926 7417
L15945 7398
L15983 7379
L16039 7379
L16076 7398
L16095 7436
L16095 7642
" />
<path d="M16095 7436
L16114 7398
L16151 7379
L16207 7379
L16245 7398
L16264 7436
L16264 7642
" />
<path d="M16451 7642
L16451 7379
" />
<path d="M16451 7417
L16470 7398
L16507 7379
L16564 7379
L16601 7398
L16620 7436
L16620 7642
" />
<path d="M16620 7436
L16639 7398
L16676 7379
L16732 7379
L16770 7398
L16789 7436
L16789 7642
" />
<path d="M4368 7642
L4368 7248
L4499 7529
L4630 7248
L4630 7642
" />
<path d="M4874 7642
L4836 7623
L4818 7604
L4799 7567
L4799 7454
L4818 7417
L4836 7398
L4874 7379
L4930 7379
L4968 7398
L4986 7417
L5005 7454
L5005 7567
L4986 7604
L4968 7623
L4930 7642
L4874 7642
" />
<path d="M5342 7379
L5342 7642
" />
<path d="M5174 7379
L5174 7586
L5192 7623
L5230 7642
L5286 7642
L5324 7623
L5342 7604
" />
<path d="M5530 7379
L5530 7642
" />
<path d="M5530 7417
L5549 7398
L5586 7379
L5642 7379
L5680 7398
L5699 7436
L5699 7642
" />
<path d="M5830 7379
L5980 7379
" />
<path d="M5886 7248
L5886 7586
L5905 7623
L5942 7642
L5980 7642
" />
<path d="M6111 7642
L6111 7379
" />
<path d="M6111 7248
L6092 7267
L6111 7286
L6130 7267
L6111 7248
L6111 7286
" />
<path d="M6299 7379
L6299 7642
" />
<path d="M6299 7417
L6317 7398
L6355 7379
L6411 7379
L6449 7398
L6467 7436
L6467 7642
" />
<path d="M6824 7379
L6824 7698
L6805 7736
L6786 7754
L6749 7773
L6692 7773
L6655 7754
" />
<path d="M6824 7623
L6786 7642
L6711 7642
L6674 7623
L6655 7604
L6636 7567
L6636 7454
L6655 7417
L6674 7398
L6711 7379
L6786 7379
L6824 7398
" />
<path d="M7011 7642
L7011 7248
" />
<path d="M7011 7436
L7236 7436
" />
<path d="M7236 7642
L7236 7248
" />
<path d="M7480 7642
L7442 7623
L7423 7604
L7405 7567
L7405 7454
L7423 7417
L7442 7398
L7480 7379
L7536 7379
L7573 7398
L7592 7417
L7611 7454
L7611 7567
L7592 7604
L7573 7623
L7536 7642
L7480 7642
" />
<path d="M7836 7642
L7798 7623
L7780 7586
L7780 7248
" />
<path d="M8136 7623
L8098 7642
L8023 7642
L7986 7623
L7967 7586
L7967 7436
L7986 7398
L8023 7379
L8098 7379
L8136 7398
L8155 7436
L8155 7473
L7967 7511
" />
<path d="M8230 7679
L8530 7679
" />
<path d="M8586 7248
L8830 7248
L8698 7398
L8755 7398
L8792 7417
L8811 7436
L8830 7473
L8830 7567
L8811 7604
L8792 7623
L8755 7642
L8642 7642
L8605 7623
L8586 7604
" />
<path d="M8998 7642
L8998 7379
" />
<path d="M8998 7417
L9017 7398
L9055 7379
L9111 7379
L9148 7398
L9167 7436
L9167 7642
" />
<path d="M9167 7436
L9186 7398
L9223 7379
L9279 7379
L9317 7398
L9336 7436
L9336 7642
" />
<path d="M9523 7642
L9523 7379
" />
<path d="M9523 7417
L9542 7398
L9579 7379
L9636 7379
L9673 7398
L9692 7436
L9692 7642
" />
<path d="M9692 7436
L9711 7398
L9748 7379
L9804 7379
L9842 7398
L9861 7436
L9861 7642
" />
</g>
<g style="fill:#C2C200; fill-opacity:0.0; 
stroke:#C2C200; stroke-width:39.3701; stroke-opacity:1; 
stroke-linecap:round; stroke-linejoin:round;">
<path d="M16650 7825
L15784 7825
" />
<path d="M17083 1093
L17083 7392
" />
<path d="M16729 739
L4484 739
" />
<path d="M4484 7825
L5390 7825
" />
<path d="M4091 1093
L4091 7432
" />
<path d="M16650.3 7825.79 A433.071 433.071 0.0 0 0 17083.4 7392.72 " />
<path d="M17083.4 1093.5 A354.331 354.331 0.0 0 0 16729.1 739.173 " />
<path d="M4091.28 7432.09 A393.701 393.701 0.0 0 0 4484.98 7825.79 " />
<path d="M4484.98 739.173 A393.701 393.701 0.0 0 0 4091.28 1132.87 " />
<path d="M7910 10384
L6138 10384
" />
<path d="M8500 8416
L8500 9794
" />
<path d="M12044 7825
L9091 7825
" />
<path d="M12634 9794
L12634 8416
" />
<path d="M14996 10384
L13225 10384
" />
<path d="M15390 8219
L15390 9991
" />
<path d="M12634.6 9794.29 A590.551 590.551 0.0 0 0 13225.1 10384.8 " />
<path d="M12634.6 8416.34 A590.551 590.551 0.0 0 0 12044 7825.79 " />
<path d="M9091.28 7825.79 A590.551 590.551 0.0 0 0 8500.73 8416.34 " />
<path d="M7910.18 10384.8 A590.551 590.551 0.0 0 0 8500.73 9794.29 " />
<path d="M5744 8219
L5744 9991
" />
<path d="M15784.2 7825.79 A393.701 393.701 0.0 0 0 15390.5 8219.49 " />
<path d="M14996.8 10384.8 A393.701 393.701 0.0 0 0 15390.5 9991.14 " />
<path d="M5744.83 9991.14 A393.701 393.701 0.0 0 0 6138.53 10384.8 " />
<path d="M5744.83 8219.49 A393.701 393.701 0.0 0 0 5351.12 7825.79 " />
</g> 
</svg>
