G04 #@! TF.FileFunction,Copper,L2,Bot,Signal*
%FSLAX46Y46*%
G04 Gerber Fmt 4.6, Leading zero omitted, Abs format (unit mm)*
G04 Created by KiCad (PCBNEW (2015-01-08 BZR 5360)-product) date 2015-02-02T04:43:26 CET*
%MOMM*%
G01*
G04 APERTURE LIST*
%ADD10C,0.100000*%
%ADD11R,1.727200X1.727200*%
%ADD12O,1.727200X1.727200*%
%ADD13R,1.143000X0.635000*%
%ADD14R,1.100000X1.500000*%
%ADD15C,0.889000*%
%ADD16C,0.254000*%
G04 APERTURE END LIST*
D10*
X91844000Y-77944000D02*
X89644000Y-77944000D01*
X92944000Y-60844000D02*
X92944000Y-76844000D01*
X92044000Y-59944000D02*
X60944000Y-59944000D01*
X60944000Y-77944000D02*
X63244000Y-77944000D01*
X59944000Y-60844000D02*
X59944000Y-76944000D01*
X91844000Y-77944000D02*
G75*
G03X92944000Y-76844000I0J1100000D01*
G01*
X92944000Y-60844000D02*
G75*
G03X92044000Y-59944000I-900000J0D01*
G01*
X59944000Y-76944000D02*
G75*
G03X60944000Y-77944000I1000000J0D01*
G01*
X60944000Y-59944000D02*
G75*
G03X59944000Y-60944000I0J-1000000D01*
G01*
X69644000Y-84444000D02*
X65144000Y-84444000D01*
X71144000Y-79444000D02*
X71144000Y-82944000D01*
X80144000Y-77944000D02*
X72644000Y-77944000D01*
X81644000Y-82944000D02*
X81644000Y-79444000D01*
X87644000Y-84444000D02*
X83144000Y-84444000D01*
X88644000Y-78944000D02*
X88644000Y-83444000D01*
X81644000Y-82944000D02*
G75*
G03X83144000Y-84444000I1500000J0D01*
G01*
X81644000Y-79444000D02*
G75*
G03X80144000Y-77944000I-1500000J0D01*
G01*
X72644000Y-77944000D02*
G75*
G03X71144000Y-79444000I0J-1500000D01*
G01*
X69644000Y-84444000D02*
G75*
G03X71144000Y-82944000I0J1500000D01*
G01*
X64144000Y-78944000D02*
X64144000Y-83444000D01*
X89644000Y-77944000D02*
G75*
G03X88644000Y-78944000I0J-1000000D01*
G01*
X87644000Y-84444000D02*
G75*
G03X88644000Y-83444000I0J1000000D01*
G01*
X64144000Y-83444000D02*
G75*
G03X65144000Y-84444000I1000000J0D01*
G01*
X64144000Y-78944000D02*
G75*
G03X63144000Y-77944000I-1000000J0D01*
G01*
D11*
X67542000Y-64516000D03*
D12*
X67542000Y-61976000D03*
X70082000Y-64516000D03*
X70082000Y-61976000D03*
D11*
X72622000Y-64516000D03*
D12*
X72622000Y-61976000D03*
X75162000Y-64516000D03*
X75162000Y-61976000D03*
D11*
X77702000Y-64516000D03*
D12*
X77702000Y-61976000D03*
X80242000Y-64516000D03*
X80242000Y-61976000D03*
D11*
X82782000Y-64516000D03*
D12*
X82782000Y-61976000D03*
X85322000Y-64516000D03*
X85322000Y-61976000D03*
D13*
X62462000Y-69850000D03*
X62462000Y-68326000D03*
X71352000Y-69850000D03*
X71352000Y-68326000D03*
X79988000Y-69850000D03*
X79988000Y-68326000D03*
X88878000Y-68326000D03*
X88878000Y-69850000D03*
D14*
X88869680Y-71906000D03*
X90369680Y-71906000D03*
X90369680Y-74906000D03*
X88869680Y-74906000D03*
X80071120Y-71906000D03*
X81571120Y-71906000D03*
X81571120Y-74906000D03*
X80071120Y-74906000D03*
X71272560Y-71906000D03*
X72772560Y-71906000D03*
X72772560Y-74906000D03*
X71272560Y-74906000D03*
X62474000Y-71906000D03*
X63974000Y-71906000D03*
X63974000Y-74906000D03*
X62474000Y-74906000D03*
D15*
X66018000Y-67310000D03*
X67034000Y-68326000D03*
X63732000Y-68072000D03*
X73130000Y-66294000D03*
X74400000Y-68326000D03*
X71098000Y-66802000D03*
X78718000Y-72136000D03*
X81766000Y-67818000D03*
X82782000Y-69596000D03*
X87100000Y-71882000D03*
D16*
X62474000Y-71906000D02*
X62474000Y-71362000D01*
X62474000Y-71362000D02*
X63478000Y-70358000D01*
X66272000Y-63500000D02*
X67542000Y-62230000D01*
X66272000Y-64262000D02*
X66272000Y-63500000D01*
X64748000Y-65786000D02*
X66272000Y-64262000D01*
X64748000Y-66040000D02*
X64748000Y-65786000D01*
X64748000Y-70358000D02*
X64748000Y-66040000D01*
X63478000Y-70358000D02*
X64748000Y-70358000D01*
X67542000Y-62230000D02*
X67542000Y-61976000D01*
X67542000Y-62230000D02*
X67542000Y-61976000D01*
X62474000Y-71906000D02*
X62474000Y-71405576D01*
X62474000Y-72632000D02*
X62474000Y-71906000D01*
X66018000Y-67310000D02*
X65510000Y-67818000D01*
X65510000Y-67818000D02*
X65510000Y-70370000D01*
X65510000Y-70370000D02*
X63974000Y-71906000D01*
X63974000Y-74906000D02*
X64518000Y-74906000D01*
X64518000Y-74906000D02*
X67034000Y-72390000D01*
X67034000Y-72390000D02*
X67034000Y-68326000D01*
X70082000Y-64516000D02*
X70082000Y-65278000D01*
X70082000Y-65278000D02*
X67034000Y-68326000D01*
X63974000Y-74906000D02*
X63974000Y-74410000D01*
X62462000Y-68326000D02*
X62462000Y-69850000D01*
X62462000Y-68326000D02*
X63478000Y-68326000D01*
X63478000Y-68326000D02*
X63732000Y-68072000D01*
X63478000Y-68326000D02*
X63732000Y-68072000D01*
X63478000Y-68326000D02*
X63732000Y-68072000D01*
X62474000Y-74906000D02*
X62438000Y-74906000D01*
X62438000Y-74906000D02*
X61192000Y-73660000D01*
X61192000Y-71120000D02*
X62462000Y-69850000D01*
X61192000Y-73660000D02*
X61192000Y-71120000D01*
X71272560Y-71906000D02*
X71272560Y-71453440D01*
X71272560Y-71453440D02*
X72622000Y-70104000D01*
X72622000Y-70104000D02*
X72622000Y-67056000D01*
X72622000Y-67056000D02*
X71352000Y-65786000D01*
X71352000Y-65786000D02*
X71352000Y-63246000D01*
X71352000Y-63246000D02*
X72622000Y-61976000D01*
X73130000Y-66294000D02*
X73384000Y-66548000D01*
X73384000Y-66548000D02*
X73384000Y-71294560D01*
X73384000Y-71294560D02*
X72772560Y-71906000D01*
X72772560Y-74906000D02*
X73182000Y-74906000D01*
X73182000Y-74906000D02*
X74400000Y-73688000D01*
X74400000Y-73688000D02*
X74400000Y-68326000D01*
X75162000Y-64516000D02*
X75162000Y-67564000D01*
X75162000Y-67564000D02*
X74400000Y-68326000D01*
X72772560Y-74906000D02*
X72772560Y-74318560D01*
X71352000Y-68326000D02*
X71352000Y-67056000D01*
X71352000Y-67056000D02*
X71098000Y-66802000D01*
X71098000Y-66802000D02*
X71352000Y-67056000D01*
X71272560Y-74906000D02*
X71272560Y-74850560D01*
X71272560Y-74850560D02*
X70082000Y-73660000D01*
X70082000Y-73660000D02*
X70082000Y-71120000D01*
X70082000Y-71120000D02*
X71352000Y-69850000D01*
X71352000Y-69850000D02*
X71352000Y-68326000D01*
X78718000Y-72136000D02*
X78948000Y-71906000D01*
X78948000Y-71906000D02*
X80071120Y-71906000D01*
X81571120Y-68012880D02*
X81571120Y-71906000D01*
X81766000Y-67818000D02*
X81571120Y-68012880D01*
X82782000Y-69596000D02*
X82782000Y-73695120D01*
X82782000Y-73695120D02*
X81571120Y-74906000D01*
X80242000Y-64516000D02*
X80242000Y-65786000D01*
X82782000Y-67310000D02*
X82782000Y-69596000D01*
X82020000Y-66548000D02*
X82782000Y-67310000D01*
X81004000Y-66548000D02*
X82020000Y-66548000D01*
X80242000Y-65786000D02*
X81004000Y-66548000D01*
X77702000Y-64516000D02*
X77702000Y-66040000D01*
X77702000Y-66040000D02*
X79988000Y-68326000D01*
X80071120Y-74906000D02*
X79964000Y-74906000D01*
X79964000Y-74906000D02*
X77702000Y-72644000D01*
X77702000Y-72644000D02*
X77702000Y-71120000D01*
X77702000Y-71120000D02*
X78972000Y-69850000D01*
X78972000Y-69850000D02*
X79988000Y-69850000D01*
X79988000Y-69850000D02*
X79988000Y-68326000D01*
X88869680Y-71906000D02*
X87124000Y-71906000D01*
X87124000Y-71906000D02*
X87100000Y-71882000D01*
X85322000Y-61976000D02*
X85322000Y-62738000D01*
X85322000Y-62738000D02*
X84052000Y-64008000D01*
X84052000Y-64008000D02*
X84052000Y-65024000D01*
X84052000Y-65024000D02*
X86338000Y-67310000D01*
X86338000Y-67310000D02*
X89894000Y-67310000D01*
X89894000Y-67310000D02*
X90369680Y-67785680D01*
X90369680Y-67785680D02*
X90369680Y-71906000D01*
X85322000Y-64516000D02*
X85322000Y-65278000D01*
X85322000Y-65278000D02*
X86592000Y-66548000D01*
X91672000Y-73603680D02*
X90369680Y-74906000D01*
X91672000Y-67818000D02*
X91672000Y-73603680D01*
X90402000Y-66548000D02*
X91672000Y-67818000D01*
X86592000Y-66548000D02*
X90402000Y-66548000D01*
X85322000Y-64516000D02*
X85322000Y-64770000D01*
X90369680Y-74906000D02*
X90426000Y-74906000D01*
X85322000Y-67056000D02*
X85322000Y-68072000D01*
X85322000Y-68072000D02*
X85576000Y-68326000D01*
X85576000Y-68326000D02*
X88878000Y-68326000D01*
X82782000Y-64516000D02*
X85322000Y-67056000D01*
X88869680Y-74906000D02*
X86362000Y-74906000D01*
X86846000Y-69850000D02*
X88878000Y-69850000D01*
X86084000Y-70612000D02*
X86846000Y-69850000D01*
X86084000Y-74628000D02*
X86084000Y-70612000D01*
X86362000Y-74906000D02*
X86084000Y-74628000D01*
X88869680Y-74906000D02*
X88600000Y-74906000D01*
X88878000Y-69850000D02*
X88878000Y-68326000D01*
M02*
