G04 #@! TF.FileFunction,Copper,L1,Top,Signal*
%FSLAX46Y46*%
G04 Gerber Fmt 4.6, Leading zero omitted, Abs format (unit mm)*
G04 Created by KiCad (PCBNEW (2015-01-08 BZR 5360)-product) date 2015-02-02T04:43:26 CET*
%MOMM*%
G01*
G04 APERTURE LIST*
%ADD10C,0.100000*%
%ADD11R,1.727200X1.727200*%
%ADD12O,1.727200X1.727200*%
%ADD13R,1.143000X0.635000*%
%ADD14R,1.100000X1.500000*%
%ADD15C,0.889000*%
%ADD16C,0.254000*%
G04 APERTURE END LIST*
D10*
X91844000Y-77944000D02*
X89644000Y-77944000D01*
X92944000Y-60844000D02*
X92944000Y-76844000D01*
X92044000Y-59944000D02*
X60944000Y-59944000D01*
X60944000Y-77944000D02*
X63244000Y-77944000D01*
X59944000Y-60844000D02*
X59944000Y-76944000D01*
X91844000Y-77944000D02*
G75*
G03X92944000Y-76844000I0J1100000D01*
G01*
X92944000Y-60844000D02*
G75*
G03X92044000Y-59944000I-900000J0D01*
G01*
X59944000Y-76944000D02*
G75*
G03X60944000Y-77944000I1000000J0D01*
G01*
X60944000Y-59944000D02*
G75*
G03X59944000Y-60944000I0J-1000000D01*
G01*
X69644000Y-84444000D02*
X65144000Y-84444000D01*
X71144000Y-79444000D02*
X71144000Y-82944000D01*
X80144000Y-77944000D02*
X72644000Y-77944000D01*
X81644000Y-82944000D02*
X81644000Y-79444000D01*
X87644000Y-84444000D02*
X83144000Y-84444000D01*
X88644000Y-78944000D02*
X88644000Y-83444000D01*
X81644000Y-82944000D02*
G75*
G03X83144000Y-84444000I1500000J0D01*
G01*
X81644000Y-79444000D02*
G75*
G03X80144000Y-77944000I-1500000J0D01*
G01*
X72644000Y-77944000D02*
G75*
G03X71144000Y-79444000I0J-1500000D01*
G01*
X69644000Y-84444000D02*
G75*
G03X71144000Y-82944000I0J1500000D01*
G01*
X64144000Y-78944000D02*
X64144000Y-83444000D01*
X89644000Y-77944000D02*
G75*
G03X88644000Y-78944000I0J-1000000D01*
G01*
X87644000Y-84444000D02*
G75*
G03X88644000Y-83444000I0J1000000D01*
G01*
X64144000Y-83444000D02*
G75*
G03X65144000Y-84444000I1000000J0D01*
G01*
X64144000Y-78944000D02*
G75*
G03X63144000Y-77944000I-1000000J0D01*
G01*
D11*
X67542000Y-64516000D03*
D12*
X67542000Y-61976000D03*
X70082000Y-64516000D03*
X70082000Y-61976000D03*
D11*
X72622000Y-64516000D03*
D12*
X72622000Y-61976000D03*
X75162000Y-64516000D03*
X75162000Y-61976000D03*
D11*
X77702000Y-64516000D03*
D12*
X77702000Y-61976000D03*
X80242000Y-64516000D03*
X80242000Y-61976000D03*
D11*
X82782000Y-64516000D03*
D12*
X82782000Y-61976000D03*
X85322000Y-64516000D03*
X85322000Y-61976000D03*
D13*
X62462000Y-69850000D03*
X62462000Y-68326000D03*
X71352000Y-69850000D03*
X71352000Y-68326000D03*
X79988000Y-69850000D03*
X79988000Y-68326000D03*
X88878000Y-69850000D03*
X88878000Y-68326000D03*
D14*
X88869680Y-74906000D03*
X90369680Y-74906000D03*
X90369680Y-71906000D03*
X88869680Y-71906000D03*
X80071120Y-74906000D03*
X81571120Y-74906000D03*
X81571120Y-71906000D03*
X80071120Y-71906000D03*
X71272560Y-74906000D03*
X72772560Y-74906000D03*
X72772560Y-71906000D03*
X71272560Y-71906000D03*
X62474000Y-74906000D03*
X63974000Y-74906000D03*
X63974000Y-71906000D03*
X62474000Y-71906000D03*
D15*
X66018000Y-67310000D03*
X67034000Y-68326000D03*
X63732000Y-68072000D03*
X73130000Y-66294000D03*
X74400000Y-68326000D03*
X71098000Y-66802000D03*
X78718000Y-72136000D03*
X81766000Y-67818000D03*
X82782000Y-69596000D03*
X87100000Y-71882000D03*
D16*
X66272000Y-64262000D02*
X66272000Y-63500000D01*
X66272000Y-63500000D02*
X67542000Y-62230000D01*
X67542000Y-62230000D02*
X67542000Y-61976000D01*
X67542000Y-61976000D02*
X67542000Y-62230000D01*
X67542000Y-62230000D02*
X66272000Y-63500000D01*
X66272000Y-63500000D02*
X66272000Y-64262000D01*
X66272000Y-64262000D02*
X63224000Y-67310000D01*
X63224000Y-67310000D02*
X61446000Y-67310000D01*
X61446000Y-67310000D02*
X61192000Y-67564000D01*
X61192000Y-67564000D02*
X61192000Y-73624000D01*
X61192000Y-73624000D02*
X62474000Y-74906000D01*
X62474000Y-74906000D02*
X62474000Y-74180000D01*
X63974000Y-74906000D02*
X64518000Y-74906000D01*
X64518000Y-74906000D02*
X68050000Y-71374000D01*
X68050000Y-71374000D02*
X68050000Y-66294000D01*
X68050000Y-66294000D02*
X68812000Y-65532000D01*
X68812000Y-65532000D02*
X68812000Y-63754000D01*
X68812000Y-63754000D02*
X70082000Y-62484000D01*
X70082000Y-62484000D02*
X70082000Y-61976000D01*
X70082000Y-61976000D02*
X70082000Y-62484000D01*
X70082000Y-62484000D02*
X68812000Y-63754000D01*
X68812000Y-63754000D02*
X68812000Y-65532000D01*
X68812000Y-65532000D02*
X67034000Y-67310000D01*
X67034000Y-67310000D02*
X66018000Y-67310000D01*
X67034000Y-68326000D02*
X65510000Y-69850000D01*
X65510000Y-69850000D02*
X65510000Y-70370000D01*
X65510000Y-70370000D02*
X63974000Y-71906000D01*
X63974000Y-72402000D02*
X63974000Y-71906000D01*
X62462000Y-69850000D02*
X62462000Y-68326000D01*
X62462000Y-68326000D02*
X63478000Y-68326000D01*
X63478000Y-68326000D02*
X63732000Y-68072000D01*
X63732000Y-68072000D02*
X67288000Y-64516000D01*
X67288000Y-64516000D02*
X67542000Y-64516000D01*
X62474000Y-71906000D02*
X62474000Y-69862000D01*
X62474000Y-69862000D02*
X62462000Y-69850000D01*
X72622000Y-61976000D02*
X71352000Y-63246000D01*
X70082000Y-73715440D02*
X71272560Y-74906000D01*
X70082000Y-66548000D02*
X70082000Y-73715440D01*
X71352000Y-65278000D02*
X70082000Y-66548000D01*
X71352000Y-63246000D02*
X71352000Y-65278000D01*
X72772560Y-74906000D02*
X73154000Y-74906000D01*
X73154000Y-74906000D02*
X75416000Y-72644000D01*
X75416000Y-72644000D02*
X75416000Y-67056000D01*
X75416000Y-67056000D02*
X74654000Y-66294000D01*
X74654000Y-66294000D02*
X73130000Y-66294000D01*
X75162000Y-61976000D02*
X75162000Y-62230000D01*
X75162000Y-62230000D02*
X73892000Y-63500000D01*
X73892000Y-63500000D02*
X73892000Y-65532000D01*
X73892000Y-65532000D02*
X73130000Y-66294000D01*
X72772560Y-69953440D02*
X72772560Y-71906000D01*
X74400000Y-68326000D02*
X72772560Y-69953440D01*
X72772560Y-72493440D02*
X72772560Y-71906000D01*
X71352000Y-68326000D02*
X71352000Y-67056000D01*
X71352000Y-67056000D02*
X71098000Y-66802000D01*
X72622000Y-64516000D02*
X72622000Y-65278000D01*
X72622000Y-65278000D02*
X71098000Y-66802000D01*
X71272560Y-71906000D02*
X71272560Y-69929440D01*
X71272560Y-69929440D02*
X71352000Y-69850000D01*
X71352000Y-68326000D02*
X71352000Y-69850000D01*
X78718000Y-72136000D02*
X78718000Y-73552880D01*
X78718000Y-73552880D02*
X80071120Y-74906000D01*
X77702000Y-61976000D02*
X77194000Y-61976000D01*
X77194000Y-61976000D02*
X76432000Y-62738000D01*
X76432000Y-62738000D02*
X76432000Y-69850000D01*
X76432000Y-69850000D02*
X78718000Y-72136000D01*
X81571120Y-74906000D02*
X82552000Y-74906000D01*
X82782000Y-67818000D02*
X81766000Y-67818000D01*
X83798000Y-68834000D02*
X82782000Y-67818000D01*
X83798000Y-73660000D02*
X83798000Y-68834000D01*
X82552000Y-74906000D02*
X83798000Y-73660000D01*
X81571120Y-74906000D02*
X82044000Y-74906000D01*
X80242000Y-61976000D02*
X78972000Y-63246000D01*
X78972000Y-63246000D02*
X78972000Y-66040000D01*
X78972000Y-66040000D02*
X80242000Y-67310000D01*
X80242000Y-67310000D02*
X81258000Y-67310000D01*
X81258000Y-67310000D02*
X81766000Y-67818000D01*
X81571120Y-70806880D02*
X81571120Y-71906000D01*
X82782000Y-69596000D02*
X81571120Y-70806880D01*
X77702000Y-64516000D02*
X77702000Y-66040000D01*
X77702000Y-66040000D02*
X79988000Y-68326000D01*
X80071120Y-71906000D02*
X80071120Y-69933120D01*
X80071120Y-69933120D02*
X79988000Y-69850000D01*
X79988000Y-68326000D02*
X79988000Y-69850000D01*
X84560000Y-71882000D02*
X84560000Y-67564000D01*
X87100000Y-71882000D02*
X84560000Y-71882000D01*
X84560000Y-67564000D02*
X82782000Y-65786000D01*
X82782000Y-65786000D02*
X81512000Y-65786000D01*
X81512000Y-65786000D02*
X81512000Y-62992000D01*
X81512000Y-62992000D02*
X82528000Y-61976000D01*
X82528000Y-61976000D02*
X82782000Y-61976000D01*
X88869680Y-74906000D02*
X85298000Y-74906000D01*
X81512000Y-62992000D02*
X82528000Y-61976000D01*
X81512000Y-64770000D02*
X81512000Y-62992000D01*
X81512000Y-65786000D02*
X81512000Y-64770000D01*
X82782000Y-65786000D02*
X81512000Y-65786000D01*
X84560000Y-67564000D02*
X82782000Y-65786000D01*
X84560000Y-74168000D02*
X84560000Y-67564000D01*
X85298000Y-74906000D02*
X84560000Y-74168000D01*
X82528000Y-61976000D02*
X82782000Y-61976000D01*
X85322000Y-61976000D02*
X86338000Y-62992000D01*
X91672000Y-73660000D02*
X90426000Y-74906000D01*
X91672000Y-67818000D02*
X91672000Y-73660000D01*
X90402000Y-66548000D02*
X91672000Y-67818000D01*
X88116000Y-66548000D02*
X90402000Y-66548000D01*
X86592000Y-65024000D02*
X88116000Y-66548000D01*
X86592000Y-63246000D02*
X86592000Y-65024000D01*
X86338000Y-62992000D02*
X86592000Y-63246000D01*
X90426000Y-74906000D02*
X90369680Y-74906000D01*
X90369680Y-71906000D02*
X90369680Y-67850320D01*
X85343788Y-66315788D02*
X85343788Y-64537788D01*
X86402640Y-67374640D02*
X85343788Y-66315788D01*
X89894000Y-67374640D02*
X86402640Y-67374640D01*
X90369680Y-67850320D02*
X89894000Y-67374640D01*
X85343788Y-64537788D02*
X85322000Y-64516000D01*
X88878000Y-68326000D02*
X85576000Y-68326000D01*
X85322000Y-67056000D02*
X82782000Y-64516000D01*
X85322000Y-68072000D02*
X85322000Y-67056000D01*
X85576000Y-68326000D02*
X85322000Y-68072000D01*
X88878000Y-69850000D02*
X88878000Y-71897680D01*
X88878000Y-71897680D02*
X88869680Y-71906000D01*
X88878000Y-68326000D02*
X88878000Y-69850000D01*
M02*
