G04 #@! TF.FileFunction,Legend,Bot*
%FSLAX46Y46*%
G04 Gerber Fmt 4.6, Leading zero omitted, Abs format (unit mm)*
G04 Created by KiCad (PCBNEW (2015-01-08 BZR 5360)-product) date 2015-02-02T04:43:26 CET*
%MOMM*%
G01*
G04 APERTURE LIST*
%ADD10C,0.100000*%
%ADD11C,0.150000*%
G04 APERTURE END LIST*
D10*
X91844000Y-77944000D02*
X89644000Y-77944000D01*
X92944000Y-60844000D02*
X92944000Y-76844000D01*
X92044000Y-59944000D02*
X60944000Y-59944000D01*
X60944000Y-77944000D02*
X63244000Y-77944000D01*
X59944000Y-60844000D02*
X59944000Y-76944000D01*
X91844000Y-77944000D02*
G75*
G03X92944000Y-76844000I0J1100000D01*
G01*
X92944000Y-60844000D02*
G75*
G03X92044000Y-59944000I-900000J0D01*
G01*
X59944000Y-76944000D02*
G75*
G03X60944000Y-77944000I1000000J0D01*
G01*
X60944000Y-59944000D02*
G75*
G03X59944000Y-60944000I0J-1000000D01*
G01*
X69644000Y-84444000D02*
X65144000Y-84444000D01*
X71144000Y-79444000D02*
X71144000Y-82944000D01*
X80144000Y-77944000D02*
X72644000Y-77944000D01*
X81644000Y-82944000D02*
X81644000Y-79444000D01*
X87644000Y-84444000D02*
X83144000Y-84444000D01*
X88644000Y-78944000D02*
X88644000Y-83444000D01*
X81644000Y-82944000D02*
G75*
G03X83144000Y-84444000I1500000J0D01*
G01*
X81644000Y-79444000D02*
G75*
G03X80144000Y-77944000I-1500000J0D01*
G01*
X72644000Y-77944000D02*
G75*
G03X71144000Y-79444000I0J-1500000D01*
G01*
X69644000Y-84444000D02*
G75*
G03X71144000Y-82944000I0J1500000D01*
G01*
X64144000Y-78944000D02*
X64144000Y-83444000D01*
X89644000Y-77944000D02*
G75*
G03X88644000Y-78944000I0J-1000000D01*
G01*
X87644000Y-84444000D02*
G75*
G03X88644000Y-83444000I0J1000000D01*
G01*
X64144000Y-83444000D02*
G75*
G03X65144000Y-84444000I1000000J0D01*
G01*
X64144000Y-78944000D02*
G75*
G03X63144000Y-77944000I-1000000J0D01*
G01*
D11*
X63160500Y-69588380D02*
X63160500Y-70294500D01*
X63160500Y-70294500D02*
X61763500Y-70294500D01*
X61763500Y-70294500D02*
X61763500Y-69588380D01*
X63160500Y-67881500D02*
X63160500Y-68587620D01*
X63160500Y-67881500D02*
X61763500Y-67881500D01*
X61763500Y-67881500D02*
X61763500Y-68587620D01*
X72050500Y-69588380D02*
X72050500Y-70294500D01*
X72050500Y-70294500D02*
X70653500Y-70294500D01*
X70653500Y-70294500D02*
X70653500Y-69588380D01*
X72050500Y-67881500D02*
X72050500Y-68587620D01*
X72050500Y-67881500D02*
X70653500Y-67881500D01*
X70653500Y-67881500D02*
X70653500Y-68587620D01*
X80686500Y-69588380D02*
X80686500Y-70294500D01*
X80686500Y-70294500D02*
X79289500Y-70294500D01*
X79289500Y-70294500D02*
X79289500Y-69588380D01*
X80686500Y-67881500D02*
X80686500Y-68587620D01*
X80686500Y-67881500D02*
X79289500Y-67881500D01*
X79289500Y-67881500D02*
X79289500Y-68587620D01*
X88179500Y-68587620D02*
X88179500Y-67881500D01*
X88179500Y-67881500D02*
X89576500Y-67881500D01*
X89576500Y-67881500D02*
X89576500Y-68587620D01*
X88179500Y-70294500D02*
X88179500Y-69588380D01*
X88179500Y-70294500D02*
X89576500Y-70294500D01*
X89576500Y-70294500D02*
X89576500Y-69588380D01*
X91619680Y-76406000D02*
X91619680Y-70406000D01*
X91619680Y-70406000D02*
X88419680Y-70406000D01*
X88419680Y-70406000D02*
X87619680Y-71206000D01*
X87619680Y-71206000D02*
X87619680Y-76406000D01*
X91619680Y-76406000D02*
X87619680Y-76406000D01*
X88519680Y-74106000D02*
X88519680Y-72806000D01*
X89719680Y-75006000D02*
X89519680Y-75006000D01*
X90719680Y-72806000D02*
X90719680Y-74006000D01*
X89719680Y-71806000D02*
X89519680Y-71806000D01*
X82821120Y-76406000D02*
X82821120Y-70406000D01*
X82821120Y-70406000D02*
X79621120Y-70406000D01*
X79621120Y-70406000D02*
X78821120Y-71206000D01*
X78821120Y-71206000D02*
X78821120Y-76406000D01*
X82821120Y-76406000D02*
X78821120Y-76406000D01*
X79721120Y-74106000D02*
X79721120Y-72806000D01*
X80921120Y-75006000D02*
X80721120Y-75006000D01*
X81921120Y-72806000D02*
X81921120Y-74006000D01*
X80921120Y-71806000D02*
X80721120Y-71806000D01*
X74022560Y-76406000D02*
X74022560Y-70406000D01*
X74022560Y-70406000D02*
X70822560Y-70406000D01*
X70822560Y-70406000D02*
X70022560Y-71206000D01*
X70022560Y-71206000D02*
X70022560Y-76406000D01*
X74022560Y-76406000D02*
X70022560Y-76406000D01*
X70922560Y-74106000D02*
X70922560Y-72806000D01*
X72122560Y-75006000D02*
X71922560Y-75006000D01*
X73122560Y-72806000D02*
X73122560Y-74006000D01*
X72122560Y-71806000D02*
X71922560Y-71806000D01*
X65224000Y-76406000D02*
X65224000Y-70406000D01*
X65224000Y-70406000D02*
X62024000Y-70406000D01*
X62024000Y-70406000D02*
X61224000Y-71206000D01*
X61224000Y-71206000D02*
X61224000Y-76406000D01*
X65224000Y-76406000D02*
X61224000Y-76406000D01*
X62124000Y-74106000D02*
X62124000Y-72806000D01*
X63324000Y-75006000D02*
X63124000Y-75006000D01*
X64324000Y-72806000D02*
X64324000Y-74006000D01*
X63324000Y-71806000D02*
X63124000Y-71806000D01*
M02*
