G04 #@! TF.FileFunction,Soldermask,Bot*
%FSLAX46Y46*%
G04 Gerber Fmt 4.6, Leading zero omitted, Abs format (unit mm)*
G04 Created by KiCad (PCBNEW (2015-01-08 BZR 5360)-product) date 2015-02-02T04:43:26 CET*
%MOMM*%
G01*
G04 APERTURE LIST*
%ADD10C,0.100000*%
%ADD11R,1.727200X1.727200*%
%ADD12O,1.727200X1.727200*%
%ADD13R,1.143000X0.635000*%
%ADD14R,1.100000X1.500000*%
G04 APERTURE END LIST*
D10*
X91844000Y-77944000D02*
X89644000Y-77944000D01*
X92944000Y-60844000D02*
X92944000Y-76844000D01*
X92044000Y-59944000D02*
X60944000Y-59944000D01*
X60944000Y-77944000D02*
X63244000Y-77944000D01*
X59944000Y-60844000D02*
X59944000Y-76944000D01*
X91844000Y-77944000D02*
G75*
G03X92944000Y-76844000I0J1100000D01*
G01*
X92944000Y-60844000D02*
G75*
G03X92044000Y-59944000I-900000J0D01*
G01*
X59944000Y-76944000D02*
G75*
G03X60944000Y-77944000I1000000J0D01*
G01*
X60944000Y-59944000D02*
G75*
G03X59944000Y-60944000I0J-1000000D01*
G01*
X69644000Y-84444000D02*
X65144000Y-84444000D01*
X71144000Y-79444000D02*
X71144000Y-82944000D01*
X80144000Y-77944000D02*
X72644000Y-77944000D01*
X81644000Y-82944000D02*
X81644000Y-79444000D01*
X87644000Y-84444000D02*
X83144000Y-84444000D01*
X88644000Y-78944000D02*
X88644000Y-83444000D01*
X81644000Y-82944000D02*
G75*
G03X83144000Y-84444000I1500000J0D01*
G01*
X81644000Y-79444000D02*
G75*
G03X80144000Y-77944000I-1500000J0D01*
G01*
X72644000Y-77944000D02*
G75*
G03X71144000Y-79444000I0J-1500000D01*
G01*
X69644000Y-84444000D02*
G75*
G03X71144000Y-82944000I0J1500000D01*
G01*
X64144000Y-78944000D02*
X64144000Y-83444000D01*
X89644000Y-77944000D02*
G75*
G03X88644000Y-78944000I0J-1000000D01*
G01*
X87644000Y-84444000D02*
G75*
G03X88644000Y-83444000I0J1000000D01*
G01*
X64144000Y-83444000D02*
G75*
G03X65144000Y-84444000I1000000J0D01*
G01*
X64144000Y-78944000D02*
G75*
G03X63144000Y-77944000I-1000000J0D01*
G01*
D11*
X67542000Y-64516000D03*
D12*
X67542000Y-61976000D03*
X70082000Y-64516000D03*
X70082000Y-61976000D03*
D11*
X72622000Y-64516000D03*
D12*
X72622000Y-61976000D03*
X75162000Y-64516000D03*
X75162000Y-61976000D03*
D11*
X77702000Y-64516000D03*
D12*
X77702000Y-61976000D03*
X80242000Y-64516000D03*
X80242000Y-61976000D03*
D11*
X82782000Y-64516000D03*
D12*
X82782000Y-61976000D03*
X85322000Y-64516000D03*
X85322000Y-61976000D03*
D13*
X62462000Y-69850000D03*
X62462000Y-68326000D03*
X71352000Y-69850000D03*
X71352000Y-68326000D03*
X79988000Y-69850000D03*
X79988000Y-68326000D03*
X88878000Y-68326000D03*
X88878000Y-69850000D03*
D14*
X88869680Y-71906000D03*
X90369680Y-71906000D03*
X90369680Y-74906000D03*
X88869680Y-74906000D03*
X80071120Y-71906000D03*
X81571120Y-71906000D03*
X81571120Y-74906000D03*
X80071120Y-74906000D03*
X71272560Y-71906000D03*
X72772560Y-71906000D03*
X72772560Y-74906000D03*
X71272560Y-74906000D03*
X62474000Y-71906000D03*
X63974000Y-71906000D03*
X63974000Y-74906000D03*
X62474000Y-74906000D03*
M02*
