M48
;DRILL file {kicad (2015-01-08 BZR 5360)-product} date 2015-02-02T04:43:28 CET
;FORMAT={-:-/ absolute / inch / decimal}
FMAT,2
INCH,TZ
T1C0.025
T2C0.040
T3C0.118
%
G90
G05
M72
T1
X2.5091Y-2.68
X2.5991Y-2.65
X2.6391Y-2.69
X2.7991Y-2.63
X2.8791Y-2.61
X2.9291Y-2.69
X3.0991Y-2.84
X3.2191Y-2.67
X3.2591Y-2.74
X3.4291Y-2.83
T2
X2.6591Y-2.44
X2.6591Y-2.54
X2.7591Y-2.44
X2.7591Y-2.54
X2.8591Y-2.44
X2.8591Y-2.54
X2.9591Y-2.44
X2.9591Y-2.54
X3.0591Y-2.44
X3.0591Y-2.54
X3.1591Y-2.44
X3.1591Y-2.54
X3.2591Y-2.44
X3.2591Y-2.54
X3.3591Y-2.44
X3.3591Y-2.54
T3
X2.4891Y-2.49
X2.6623Y-3.19
X3.3551Y-3.19
X3.5283Y-2.49
T0
M30
